<mxfile host="Electron" modified="2024-06-06T02:08:34.625Z" agent="Mozilla/5.0 (X11; Linux x86_64) AppleWebKit/537.36 (KHTML, like Gecko) draw.io/24.4.13 Chrome/124.0.6367.207 Electron/30.0.6 Safari/537.36" etag="gWIE1SB-kYSdTbXlMuR_" version="24.4.13" type="device">
  <diagram name="Page-1" id="AsfTJi5MWBB9FxyQ958i">
    <mxGraphModel dx="2112" dy="2960" grid="0" gridSize="10" guides="1" tooltips="1" connect="1" arrows="1" fold="1" page="0" pageScale="1" pageWidth="850" pageHeight="1100" math="0" shadow="0">
      <root>
        <mxCell id="0" />
        <mxCell id="1" parent="0" />
        <mxCell id="7YrM8T80tlzXBzcbhjP2-16" value="Vertex" style="swimlane;fontStyle=0;childLayout=stackLayout;horizontal=1;startSize=26;fillColor=none;horizontalStack=0;resizeParent=1;resizeParentMax=0;resizeLast=0;collapsible=1;marginBottom=0;whiteSpace=wrap;html=1;" parent="1" vertex="1">
          <mxGeometry x="10" y="148" width="140" height="182" as="geometry" />
        </mxCell>
        <mxCell id="7YrM8T80tlzXBzcbhjP2-17" value="+ getX()" style="text;strokeColor=none;fillColor=none;align=left;verticalAlign=top;spacingLeft=4;spacingRight=4;overflow=hidden;rotatable=0;points=[[0,0.5],[1,0.5]];portConstraint=eastwest;whiteSpace=wrap;html=1;" parent="7YrM8T80tlzXBzcbhjP2-16" vertex="1">
          <mxGeometry y="26" width="140" height="26" as="geometry" />
        </mxCell>
        <mxCell id="7YrM8T80tlzXBzcbhjP2-18" value="+ getY()" style="text;strokeColor=none;fillColor=none;align=left;verticalAlign=top;spacingLeft=4;spacingRight=4;overflow=hidden;rotatable=0;points=[[0,0.5],[1,0.5]];portConstraint=eastwest;whiteSpace=wrap;html=1;" parent="7YrM8T80tlzXBzcbhjP2-16" vertex="1">
          <mxGeometry y="52" width="140" height="26" as="geometry" />
        </mxCell>
        <mxCell id="7YrM8T80tlzXBzcbhjP2-19" value="+ getZ()" style="text;strokeColor=none;fillColor=none;align=left;verticalAlign=top;spacingLeft=4;spacingRight=4;overflow=hidden;rotatable=0;points=[[0,0.5],[1,0.5]];portConstraint=eastwest;whiteSpace=wrap;html=1;" parent="7YrM8T80tlzXBzcbhjP2-16" vertex="1">
          <mxGeometry y="78" width="140" height="26" as="geometry" />
        </mxCell>
        <mxCell id="7YrM8T80tlzXBzcbhjP2-21" value="+ setX()" style="text;strokeColor=none;fillColor=none;align=left;verticalAlign=top;spacingLeft=4;spacingRight=4;overflow=hidden;rotatable=0;points=[[0,0.5],[1,0.5]];portConstraint=eastwest;whiteSpace=wrap;html=1;" parent="7YrM8T80tlzXBzcbhjP2-16" vertex="1">
          <mxGeometry y="104" width="140" height="26" as="geometry" />
        </mxCell>
        <mxCell id="7YrM8T80tlzXBzcbhjP2-22" value="+ setY()" style="text;strokeColor=none;fillColor=none;align=left;verticalAlign=top;spacingLeft=4;spacingRight=4;overflow=hidden;rotatable=0;points=[[0,0.5],[1,0.5]];portConstraint=eastwest;whiteSpace=wrap;html=1;" parent="7YrM8T80tlzXBzcbhjP2-16" vertex="1">
          <mxGeometry y="130" width="140" height="26" as="geometry" />
        </mxCell>
        <mxCell id="7YrM8T80tlzXBzcbhjP2-20" value="+ setZ()" style="text;strokeColor=none;fillColor=none;align=left;verticalAlign=top;spacingLeft=4;spacingRight=4;overflow=hidden;rotatable=0;points=[[0,0.5],[1,0.5]];portConstraint=eastwest;whiteSpace=wrap;html=1;" parent="7YrM8T80tlzXBzcbhjP2-16" vertex="1">
          <mxGeometry y="156" width="140" height="26" as="geometry" />
        </mxCell>
        <mxCell id="7YrM8T80tlzXBzcbhjP2-23" value="Edge" style="swimlane;fontStyle=0;childLayout=stackLayout;horizontal=1;startSize=26;fillColor=none;horizontalStack=0;resizeParent=1;resizeParentMax=0;resizeLast=0;collapsible=1;marginBottom=0;whiteSpace=wrap;html=1;" parent="1" vertex="1">
          <mxGeometry x="-243" y="148" width="140" height="130" as="geometry" />
        </mxCell>
        <mxCell id="7YrM8T80tlzXBzcbhjP2-24" value="+ getFirstId()" style="text;strokeColor=none;fillColor=none;align=left;verticalAlign=top;spacingLeft=4;spacingRight=4;overflow=hidden;rotatable=0;points=[[0,0.5],[1,0.5]];portConstraint=eastwest;whiteSpace=wrap;html=1;" parent="7YrM8T80tlzXBzcbhjP2-23" vertex="1">
          <mxGeometry y="26" width="140" height="26" as="geometry" />
        </mxCell>
        <mxCell id="7YrM8T80tlzXBzcbhjP2-25" value="+ getSecondId()" style="text;strokeColor=none;fillColor=none;align=left;verticalAlign=top;spacingLeft=4;spacingRight=4;overflow=hidden;rotatable=0;points=[[0,0.5],[1,0.5]];portConstraint=eastwest;whiteSpace=wrap;html=1;" parent="7YrM8T80tlzXBzcbhjP2-23" vertex="1">
          <mxGeometry y="52" width="140" height="26" as="geometry" />
        </mxCell>
        <mxCell id="7YrM8T80tlzXBzcbhjP2-26" value="+ setFirstId()" style="text;strokeColor=none;fillColor=none;align=left;verticalAlign=top;spacingLeft=4;spacingRight=4;overflow=hidden;rotatable=0;points=[[0,0.5],[1,0.5]];portConstraint=eastwest;whiteSpace=wrap;html=1;" parent="7YrM8T80tlzXBzcbhjP2-23" vertex="1">
          <mxGeometry y="78" width="140" height="26" as="geometry" />
        </mxCell>
        <mxCell id="7YrM8T80tlzXBzcbhjP2-27" value="+ setSecondId()" style="text;strokeColor=none;fillColor=none;align=left;verticalAlign=top;spacingLeft=4;spacingRight=4;overflow=hidden;rotatable=0;points=[[0,0.5],[1,0.5]];portConstraint=eastwest;whiteSpace=wrap;html=1;" parent="7YrM8T80tlzXBzcbhjP2-23" vertex="1">
          <mxGeometry y="104" width="140" height="26" as="geometry" />
        </mxCell>
        <mxCell id="7YrM8T80tlzXBzcbhjP2-28" value="AdjacencyList" style="swimlane;fontStyle=0;childLayout=stackLayout;horizontal=1;startSize=26;fillColor=none;horizontalStack=0;resizeParent=1;resizeParentMax=0;resizeLast=0;collapsible=1;marginBottom=0;whiteSpace=wrap;html=1;" parent="1" vertex="1">
          <mxGeometry x="250" y="148" width="140" height="130" as="geometry" />
        </mxCell>
        <mxCell id="7YrM8T80tlzXBzcbhjP2-29" value="+ get(firstId)" style="text;strokeColor=none;fillColor=none;align=left;verticalAlign=top;spacingLeft=4;spacingRight=4;overflow=hidden;rotatable=0;points=[[0,0.5],[1,0.5]];portConstraint=eastwest;whiteSpace=wrap;html=1;" parent="7YrM8T80tlzXBzcbhjP2-28" vertex="1">
          <mxGeometry y="26" width="140" height="26" as="geometry" />
        </mxCell>
        <mxCell id="7YrM8T80tlzXBzcbhjP2-30" value="+ add(firstId, )" style="text;strokeColor=none;fillColor=none;align=left;verticalAlign=top;spacingLeft=4;spacingRight=4;overflow=hidden;rotatable=0;points=[[0,0.5],[1,0.5]];portConstraint=eastwest;whiteSpace=wrap;html=1;" parent="7YrM8T80tlzXBzcbhjP2-28" vertex="1">
          <mxGeometry y="52" width="140" height="26" as="geometry" />
        </mxCell>
        <mxCell id="7YrM8T80tlzXBzcbhjP2-31" value="+ remove(firstId)" style="text;strokeColor=none;fillColor=none;align=left;verticalAlign=top;spacingLeft=4;spacingRight=4;overflow=hidden;rotatable=0;points=[[0,0.5],[1,0.5]];portConstraint=eastwest;whiteSpace=wrap;html=1;" parent="7YrM8T80tlzXBzcbhjP2-28" vertex="1">
          <mxGeometry y="78" width="140" height="26" as="geometry" />
        </mxCell>
        <mxCell id="7YrM8T80tlzXBzcbhjP2-32" value="+ remove(firstId, delId)" style="text;strokeColor=none;fillColor=none;align=left;verticalAlign=top;spacingLeft=4;spacingRight=4;overflow=hidden;rotatable=0;points=[[0,0.5],[1,0.5]];portConstraint=eastwest;whiteSpace=wrap;html=1;" parent="7YrM8T80tlzXBzcbhjP2-28" vertex="1">
          <mxGeometry y="104" width="140" height="26" as="geometry" />
        </mxCell>
        <mxCell id="7YrM8T80tlzXBzcbhjP2-35" value="VertexEdgeData" style="swimlane;fontStyle=0;childLayout=stackLayout;horizontal=1;startSize=26;fillColor=none;horizontalStack=0;resizeParent=1;resizeParentMax=0;resizeLast=0;collapsible=1;marginBottom=0;whiteSpace=wrap;html=1;" parent="1" vertex="1">
          <mxGeometry x="-117" y="-72" width="140" height="130" as="geometry" />
        </mxCell>
        <mxCell id="7YrM8T80tlzXBzcbhjP2-36" value="+ getVertices()" style="text;strokeColor=none;fillColor=none;align=left;verticalAlign=top;spacingLeft=4;spacingRight=4;overflow=hidden;rotatable=0;points=[[0,0.5],[1,0.5]];portConstraint=eastwest;whiteSpace=wrap;html=1;" parent="7YrM8T80tlzXBzcbhjP2-35" vertex="1">
          <mxGeometry y="26" width="140" height="26" as="geometry" />
        </mxCell>
        <mxCell id="7YrM8T80tlzXBzcbhjP2-37" value="+ getEdges()" style="text;strokeColor=none;fillColor=none;align=left;verticalAlign=top;spacingLeft=4;spacingRight=4;overflow=hidden;rotatable=0;points=[[0,0.5],[1,0.5]];portConstraint=eastwest;whiteSpace=wrap;html=1;" parent="7YrM8T80tlzXBzcbhjP2-35" vertex="1">
          <mxGeometry y="52" width="140" height="26" as="geometry" />
        </mxCell>
        <mxCell id="7YrM8T80tlzXBzcbhjP2-38" value="+ addVertex()" style="text;strokeColor=none;fillColor=none;align=left;verticalAlign=top;spacingLeft=4;spacingRight=4;overflow=hidden;rotatable=0;points=[[0,0.5],[1,0.5]];portConstraint=eastwest;whiteSpace=wrap;html=1;" parent="7YrM8T80tlzXBzcbhjP2-35" vertex="1">
          <mxGeometry y="78" width="140" height="26" as="geometry" />
        </mxCell>
        <mxCell id="7YrM8T80tlzXBzcbhjP2-39" value="+ addEdge()" style="text;strokeColor=none;fillColor=none;align=left;verticalAlign=top;spacingLeft=4;spacingRight=4;overflow=hidden;rotatable=0;points=[[0,0.5],[1,0.5]];portConstraint=eastwest;whiteSpace=wrap;html=1;" parent="7YrM8T80tlzXBzcbhjP2-35" vertex="1">
          <mxGeometry y="104" width="140" height="26" as="geometry" />
        </mxCell>
        <mxCell id="7YrM8T80tlzXBzcbhjP2-41" value="" style="endArrow=diamondThin;endFill=1;endSize=24;html=1;rounded=0;fontSize=12;curved=1;startArrow=open;startFill=0;" parent="1" source="7YrM8T80tlzXBzcbhjP2-23" target="7YrM8T80tlzXBzcbhjP2-39" edge="1">
          <mxGeometry width="160" relative="1" as="geometry">
            <mxPoint y="200" as="sourcePoint" />
            <mxPoint x="-58.53521126760552" y="84.00000000000045" as="targetPoint" />
          </mxGeometry>
        </mxCell>
        <mxCell id="7YrM8T80tlzXBzcbhjP2-43" value="" style="endArrow=diamondThin;endFill=1;endSize=24;html=1;rounded=0;fontSize=12;curved=1;startArrow=open;startFill=0;" parent="1" source="7YrM8T80tlzXBzcbhjP2-16" target="7YrM8T80tlzXBzcbhjP2-39" edge="1">
          <mxGeometry width="160" relative="1" as="geometry">
            <mxPoint y="200" as="sourcePoint" />
            <mxPoint x="-37.172619047619264" y="84.00000000000045" as="targetPoint" />
          </mxGeometry>
        </mxCell>
        <mxCell id="7YrM8T80tlzXBzcbhjP2-44" value="AdjacencyListData" style="swimlane;fontStyle=0;childLayout=stackLayout;horizontal=1;startSize=26;fillColor=none;horizontalStack=0;resizeParent=1;resizeParentMax=0;resizeLast=0;collapsible=1;marginBottom=0;whiteSpace=wrap;html=1;" parent="1" vertex="1">
          <mxGeometry x="218" y="-72" width="140" height="130" as="geometry" />
        </mxCell>
        <mxCell id="7YrM8T80tlzXBzcbhjP2-45" value="+ getVertices()" style="text;strokeColor=none;fillColor=none;align=left;verticalAlign=top;spacingLeft=4;spacingRight=4;overflow=hidden;rotatable=0;points=[[0,0.5],[1,0.5]];portConstraint=eastwest;whiteSpace=wrap;html=1;" parent="7YrM8T80tlzXBzcbhjP2-44" vertex="1">
          <mxGeometry y="26" width="140" height="26" as="geometry" />
        </mxCell>
        <mxCell id="7YrM8T80tlzXBzcbhjP2-46" value="+ getEdges()" style="text;strokeColor=none;fillColor=none;align=left;verticalAlign=top;spacingLeft=4;spacingRight=4;overflow=hidden;rotatable=0;points=[[0,0.5],[1,0.5]];portConstraint=eastwest;whiteSpace=wrap;html=1;" parent="7YrM8T80tlzXBzcbhjP2-44" vertex="1">
          <mxGeometry y="52" width="140" height="26" as="geometry" />
        </mxCell>
        <mxCell id="7YrM8T80tlzXBzcbhjP2-47" value="+ addVertex()" style="text;strokeColor=none;fillColor=none;align=left;verticalAlign=top;spacingLeft=4;spacingRight=4;overflow=hidden;rotatable=0;points=[[0,0.5],[1,0.5]];portConstraint=eastwest;whiteSpace=wrap;html=1;" parent="7YrM8T80tlzXBzcbhjP2-44" vertex="1">
          <mxGeometry y="78" width="140" height="26" as="geometry" />
        </mxCell>
        <mxCell id="7YrM8T80tlzXBzcbhjP2-48" value="+ addEdge()" style="text;strokeColor=none;fillColor=none;align=left;verticalAlign=top;spacingLeft=4;spacingRight=4;overflow=hidden;rotatable=0;points=[[0,0.5],[1,0.5]];portConstraint=eastwest;whiteSpace=wrap;html=1;" parent="7YrM8T80tlzXBzcbhjP2-44" vertex="1">
          <mxGeometry y="104" width="140" height="26" as="geometry" />
        </mxCell>
        <mxCell id="7YrM8T80tlzXBzcbhjP2-50" value="" style="endArrow=diamondThin;endFill=1;endSize=24;html=1;rounded=0;fontSize=12;curved=1;startArrow=open;startFill=0;" parent="1" source="7YrM8T80tlzXBzcbhjP2-16" target="7YrM8T80tlzXBzcbhjP2-48" edge="1">
          <mxGeometry width="160" relative="1" as="geometry">
            <mxPoint y="200" as="sourcePoint" />
            <mxPoint x="271.9047619047619" y="84.00000000000045" as="targetPoint" />
          </mxGeometry>
        </mxCell>
        <mxCell id="7YrM8T80tlzXBzcbhjP2-51" value="" style="endArrow=diamondThin;endFill=1;endSize=24;html=1;rounded=0;fontSize=12;curved=1;startArrow=open;startFill=0;" parent="1" source="7YrM8T80tlzXBzcbhjP2-28" target="7YrM8T80tlzXBzcbhjP2-48" edge="1">
          <mxGeometry width="160" relative="1" as="geometry">
            <mxPoint y="200" as="sourcePoint" />
            <mxPoint x="290.9295774647885" y="84.00000000000045" as="targetPoint" />
          </mxGeometry>
        </mxCell>
        <mxCell id="7YrM8T80tlzXBzcbhjP2-52" value="SceletonModelData" style="swimlane;fontStyle=0;childLayout=stackLayout;horizontal=1;startSize=26;fillColor=none;horizontalStack=0;resizeParent=1;resizeParentMax=0;resizeLast=0;collapsible=1;marginBottom=0;whiteSpace=wrap;html=1;" parent="1" vertex="1">
          <mxGeometry x="69" y="-296" width="140" height="130" as="geometry">
            <mxRectangle x="69" y="-296" width="140" height="26" as="alternateBounds" />
          </mxGeometry>
        </mxCell>
        <mxCell id="7YrM8T80tlzXBzcbhjP2-53" value="+ getVertices()" style="text;strokeColor=none;fillColor=none;align=left;verticalAlign=top;spacingLeft=4;spacingRight=4;overflow=hidden;rotatable=0;points=[[0,0.5],[1,0.5]];portConstraint=eastwest;whiteSpace=wrap;html=1;" parent="7YrM8T80tlzXBzcbhjP2-52" vertex="1">
          <mxGeometry y="26" width="140" height="26" as="geometry" />
        </mxCell>
        <mxCell id="7YrM8T80tlzXBzcbhjP2-54" value="+ getEdges()" style="text;strokeColor=none;fillColor=none;align=left;verticalAlign=top;spacingLeft=4;spacingRight=4;overflow=hidden;rotatable=0;points=[[0,0.5],[1,0.5]];portConstraint=eastwest;whiteSpace=wrap;html=1;" parent="7YrM8T80tlzXBzcbhjP2-52" vertex="1">
          <mxGeometry y="52" width="140" height="26" as="geometry" />
        </mxCell>
        <mxCell id="7YrM8T80tlzXBzcbhjP2-55" value="+ addVertex()" style="text;strokeColor=none;fillColor=none;align=left;verticalAlign=top;spacingLeft=4;spacingRight=4;overflow=hidden;rotatable=0;points=[[0,0.5],[1,0.5]];portConstraint=eastwest;whiteSpace=wrap;html=1;" parent="7YrM8T80tlzXBzcbhjP2-52" vertex="1">
          <mxGeometry y="78" width="140" height="26" as="geometry" />
        </mxCell>
        <mxCell id="7YrM8T80tlzXBzcbhjP2-56" value="+ addEdge()" style="text;strokeColor=none;fillColor=none;align=left;verticalAlign=top;spacingLeft=4;spacingRight=4;overflow=hidden;rotatable=0;points=[[0,0.5],[1,0.5]];portConstraint=eastwest;whiteSpace=wrap;html=1;" parent="7YrM8T80tlzXBzcbhjP2-52" vertex="1">
          <mxGeometry y="104" width="140" height="26" as="geometry" />
        </mxCell>
        <mxCell id="7YrM8T80tlzXBzcbhjP2-58" value="&lt;div&gt;&lt;br&gt;&lt;/div&gt;&lt;div&gt;&lt;br&gt;&lt;/div&gt;" style="endArrow=block;endSize=16;endFill=0;html=1;rounded=0;fontSize=12;curved=1;" parent="1" source="7YrM8T80tlzXBzcbhjP2-35" target="7YrM8T80tlzXBzcbhjP2-56" edge="1">
          <mxGeometry width="160" relative="1" as="geometry">
            <mxPoint y="-161" as="sourcePoint" />
            <mxPoint x="123.79245283018872" y="-140" as="targetPoint" />
          </mxGeometry>
        </mxCell>
        <mxCell id="7YrM8T80tlzXBzcbhjP2-59" value="" style="endArrow=block;endSize=16;endFill=0;html=1;rounded=0;fontSize=12;curved=1;" parent="1" source="7YrM8T80tlzXBzcbhjP2-44" target="7YrM8T80tlzXBzcbhjP2-56" edge="1">
          <mxGeometry width="160" relative="1" as="geometry">
            <mxPoint x="275" y="-66" as="sourcePoint" />
            <mxPoint x="151.18238993710702" y="-140" as="targetPoint" />
          </mxGeometry>
        </mxCell>
        <mxCell id="7YrM8T80tlzXBzcbhjP2-60" value="SceletonModel" style="swimlane;fontStyle=0;childLayout=stackLayout;horizontal=1;startSize=26;fillColor=none;horizontalStack=0;resizeParent=1;resizeParentMax=0;resizeLast=0;collapsible=1;marginBottom=0;whiteSpace=wrap;html=1;" parent="1" vertex="1">
          <mxGeometry x="69" y="-458" width="140" height="52" as="geometry" />
        </mxCell>
        <mxCell id="7YrM8T80tlzXBzcbhjP2-63" value="+ accept(Visitor)" style="text;strokeColor=none;fillColor=none;align=left;verticalAlign=top;spacingLeft=4;spacingRight=4;overflow=hidden;rotatable=0;points=[[0,0.5],[1,0.5]];portConstraint=eastwest;whiteSpace=wrap;html=1;" parent="7YrM8T80tlzXBzcbhjP2-60" vertex="1">
          <mxGeometry y="26" width="140" height="26" as="geometry" />
        </mxCell>
        <mxCell id="7YrM8T80tlzXBzcbhjP2-65" value="" style="endArrow=diamondThin;endFill=1;endSize=24;html=1;rounded=0;fontSize=12;curved=1;startArrow=open;startFill=0;" parent="1" source="7YrM8T80tlzXBzcbhjP2-52" target="7YrM8T80tlzXBzcbhjP2-63" edge="1">
          <mxGeometry width="160" relative="1" as="geometry">
            <mxPoint x="41" y="-409" as="sourcePoint" />
            <mxPoint x="201" y="-409" as="targetPoint" />
          </mxGeometry>
        </mxCell>
        <mxCell id="7YrM8T80tlzXBzcbhjP2-66" value="BaseModel" style="swimlane;fontStyle=0;childLayout=stackLayout;horizontal=1;startSize=26;fillColor=none;horizontalStack=0;resizeParent=1;resizeParentMax=0;resizeLast=0;collapsible=1;marginBottom=0;whiteSpace=wrap;html=1;" parent="1" vertex="1">
          <mxGeometry x="69" y="-607" width="140" height="52" as="geometry" />
        </mxCell>
        <mxCell id="7YrM8T80tlzXBzcbhjP2-70" value="" style="endArrow=block;endSize=16;endFill=0;html=1;rounded=0;fontSize=12;curved=1;exitX=0.5;exitY=0;exitDx=0;exitDy=0;" parent="1" source="7YrM8T80tlzXBzcbhjP2-60" edge="1">
          <mxGeometry width="160" relative="1" as="geometry">
            <mxPoint x="-19" y="-444" as="sourcePoint" />
            <mxPoint x="139" y="-555" as="targetPoint" />
          </mxGeometry>
        </mxCell>
        <mxCell id="7YrM8T80tlzXBzcbhjP2-71" value="BaseCamera" style="swimlane;fontStyle=0;childLayout=stackLayout;horizontal=1;startSize=26;fillColor=none;horizontalStack=0;resizeParent=1;resizeParentMax=0;resizeLast=0;collapsible=1;marginBottom=0;whiteSpace=wrap;html=1;" parent="1" vertex="1">
          <mxGeometry x="292" y="-607" width="140" height="52" as="geometry" />
        </mxCell>
        <mxCell id="7YrM8T80tlzXBzcbhjP2-74" value="+ accept(Visitor)" style="text;strokeColor=none;fillColor=none;align=left;verticalAlign=top;spacingLeft=4;spacingRight=4;overflow=hidden;rotatable=0;points=[[0,0.5],[1,0.5]];portConstraint=eastwest;whiteSpace=wrap;html=1;" parent="7YrM8T80tlzXBzcbhjP2-71" vertex="1">
          <mxGeometry y="26" width="140" height="26" as="geometry" />
        </mxCell>
        <mxCell id="7YrM8T80tlzXBzcbhjP2-75" value="FPSCamera" style="swimlane;fontStyle=0;childLayout=stackLayout;horizontal=1;startSize=26;fillColor=none;horizontalStack=0;resizeParent=1;resizeParentMax=0;resizeLast=0;collapsible=1;marginBottom=0;whiteSpace=wrap;html=1;" parent="1" vertex="1">
          <mxGeometry x="293" y="-457" width="140" height="52" as="geometry" />
        </mxCell>
        <mxCell id="7YrM8T80tlzXBzcbhjP2-79" value="CameraFactory" style="swimlane;fontStyle=0;childLayout=stackLayout;horizontal=1;startSize=26;fillColor=none;horizontalStack=0;resizeParent=1;resizeParentMax=0;resizeLast=0;collapsible=1;marginBottom=0;whiteSpace=wrap;html=1;" parent="1" vertex="1">
          <mxGeometry x="483" y="-457" width="140" height="52" as="geometry" />
        </mxCell>
        <mxCell id="7YrM8T80tlzXBzcbhjP2-80" value="+ create()" style="text;strokeColor=none;fillColor=none;align=left;verticalAlign=top;spacingLeft=4;spacingRight=4;overflow=hidden;rotatable=0;points=[[0,0.5],[1,0.5]];portConstraint=eastwest;whiteSpace=wrap;html=1;" parent="7YrM8T80tlzXBzcbhjP2-79" vertex="1">
          <mxGeometry y="26" width="140" height="26" as="geometry" />
        </mxCell>
        <mxCell id="7YrM8T80tlzXBzcbhjP2-83" value="InvisibleObject" style="swimlane;fontStyle=0;childLayout=stackLayout;horizontal=1;startSize=26;fillColor=none;horizontalStack=0;resizeParent=1;resizeParentMax=0;resizeLast=0;collapsible=1;marginBottom=0;whiteSpace=wrap;html=1;" parent="1" vertex="1">
          <mxGeometry x="292" y="-726" width="140" height="52" as="geometry" />
        </mxCell>
        <mxCell id="7YrM8T80tlzXBzcbhjP2-84" value="+ isVisible()" style="text;strokeColor=none;fillColor=none;align=left;verticalAlign=top;spacingLeft=4;spacingRight=4;overflow=hidden;rotatable=0;points=[[0,0.5],[1,0.5]];portConstraint=eastwest;whiteSpace=wrap;html=1;" parent="7YrM8T80tlzXBzcbhjP2-83" vertex="1">
          <mxGeometry y="26" width="140" height="26" as="geometry" />
        </mxCell>
        <mxCell id="7YrM8T80tlzXBzcbhjP2-87" value="VisibleObject" style="swimlane;fontStyle=0;childLayout=stackLayout;horizontal=1;startSize=26;fillColor=none;horizontalStack=0;resizeParent=1;resizeParentMax=0;resizeLast=0;collapsible=1;marginBottom=0;whiteSpace=wrap;html=1;" parent="1" vertex="1">
          <mxGeometry x="69" y="-726" width="140" height="52" as="geometry" />
        </mxCell>
        <mxCell id="7YrM8T80tlzXBzcbhjP2-88" value="+ isVisible()" style="text;strokeColor=none;fillColor=none;align=left;verticalAlign=top;spacingLeft=4;spacingRight=4;overflow=hidden;rotatable=0;points=[[0,0.5],[1,0.5]];portConstraint=eastwest;whiteSpace=wrap;html=1;" parent="7YrM8T80tlzXBzcbhjP2-87" vertex="1">
          <mxGeometry y="26" width="140" height="26" as="geometry" />
        </mxCell>
        <mxCell id="7YrM8T80tlzXBzcbhjP2-91" value="" style="endArrow=block;endSize=16;endFill=0;html=1;rounded=0;fontSize=12;curved=1;exitX=0.5;exitY=0;exitDx=0;exitDy=0;" parent="1" source="7YrM8T80tlzXBzcbhjP2-66" target="7YrM8T80tlzXBzcbhjP2-88" edge="1">
          <mxGeometry width="160" relative="1" as="geometry">
            <mxPoint x="256" y="-529" as="sourcePoint" />
            <mxPoint x="416" y="-529" as="targetPoint" />
          </mxGeometry>
        </mxCell>
        <mxCell id="7YrM8T80tlzXBzcbhjP2-92" value="" style="endArrow=block;endSize=16;endFill=0;html=1;rounded=0;fontSize=12;curved=1;exitX=0.5;exitY=0;exitDx=0;exitDy=0;" parent="1" source="7YrM8T80tlzXBzcbhjP2-75" target="7YrM8T80tlzXBzcbhjP2-74" edge="1">
          <mxGeometry width="160" relative="1" as="geometry">
            <mxPoint x="256" y="-529" as="sourcePoint" />
            <mxPoint x="416" y="-529" as="targetPoint" />
          </mxGeometry>
        </mxCell>
        <mxCell id="7YrM8T80tlzXBzcbhjP2-93" value="" style="endArrow=open;endFill=1;endSize=12;html=1;rounded=0;fontSize=12;curved=1;exitX=0;exitY=0.5;exitDx=0;exitDy=0;entryX=1;entryY=0.75;entryDx=0;entryDy=0;" parent="1" source="7YrM8T80tlzXBzcbhjP2-80" target="7YrM8T80tlzXBzcbhjP2-75" edge="1">
          <mxGeometry width="160" relative="1" as="geometry">
            <mxPoint x="256" y="-529" as="sourcePoint" />
            <mxPoint x="416" y="-529" as="targetPoint" />
          </mxGeometry>
        </mxCell>
        <mxCell id="7YrM8T80tlzXBzcbhjP2-94" value="" style="endArrow=open;endSize=12;dashed=1;html=1;rounded=0;fontSize=12;curved=1;exitX=0;exitY=0;exitDx=0;exitDy=0;entryX=0.864;entryY=0.962;entryDx=0;entryDy=0;entryPerimeter=0;" parent="1" source="7YrM8T80tlzXBzcbhjP2-79" target="7YrM8T80tlzXBzcbhjP2-74" edge="1">
          <mxGeometry width="160" relative="1" as="geometry">
            <mxPoint x="256" y="-529" as="sourcePoint" />
            <mxPoint x="416" y="-529" as="targetPoint" />
          </mxGeometry>
        </mxCell>
        <mxCell id="7YrM8T80tlzXBzcbhjP2-95" value="" style="endArrow=block;endSize=16;endFill=0;html=1;rounded=0;fontSize=12;curved=1;exitX=0.5;exitY=0;exitDx=0;exitDy=0;" parent="1" source="7YrM8T80tlzXBzcbhjP2-71" target="7YrM8T80tlzXBzcbhjP2-84" edge="1">
          <mxGeometry width="160" relative="1" as="geometry">
            <mxPoint x="256" y="-529" as="sourcePoint" />
            <mxPoint x="416" y="-529" as="targetPoint" />
          </mxGeometry>
        </mxCell>
        <mxCell id="7YrM8T80tlzXBzcbhjP2-96" value="BaseObject" style="swimlane;fontStyle=0;childLayout=stackLayout;horizontal=1;startSize=26;fillColor=none;horizontalStack=0;resizeParent=1;resizeParentMax=0;resizeLast=0;collapsible=1;marginBottom=0;whiteSpace=wrap;html=1;" parent="1" vertex="1">
          <mxGeometry x="163" y="-1154" width="168" height="312" as="geometry" />
        </mxCell>
        <mxCell id="7YrM8T80tlzXBzcbhjP2-97" value="+ getId()" style="text;strokeColor=none;fillColor=none;align=left;verticalAlign=top;spacingLeft=4;spacingRight=4;overflow=hidden;rotatable=0;points=[[0,0.5],[1,0.5]];portConstraint=eastwest;whiteSpace=wrap;html=1;" parent="7YrM8T80tlzXBzcbhjP2-96" vertex="1">
          <mxGeometry y="26" width="168" height="26" as="geometry" />
        </mxCell>
        <mxCell id="7YrM8T80tlzXBzcbhjP2-98" value="+ accept(Visitor)" style="text;strokeColor=none;fillColor=none;align=left;verticalAlign=top;spacingLeft=4;spacingRight=4;overflow=hidden;rotatable=0;points=[[0,0.5],[1,0.5]];portConstraint=eastwest;whiteSpace=wrap;html=1;" parent="7YrM8T80tlzXBzcbhjP2-96" vertex="1">
          <mxGeometry y="52" width="168" height="26" as="geometry" />
        </mxCell>
        <mxCell id="7YrM8T80tlzXBzcbhjP2-99" value="+ getTransformation()" style="text;strokeColor=none;fillColor=none;align=left;verticalAlign=top;spacingLeft=4;spacingRight=4;overflow=hidden;rotatable=0;points=[[0,0.5],[1,0.5]];portConstraint=eastwest;whiteSpace=wrap;html=1;" parent="7YrM8T80tlzXBzcbhjP2-96" vertex="1">
          <mxGeometry y="78" width="168" height="26" as="geometry" />
        </mxCell>
        <mxCell id="7YrM8T80tlzXBzcbhjP2-101" value="+ add()" style="text;strokeColor=none;fillColor=none;align=left;verticalAlign=top;spacingLeft=4;spacingRight=4;overflow=hidden;rotatable=0;points=[[0,0.5],[1,0.5]];portConstraint=eastwest;whiteSpace=wrap;html=1;" parent="7YrM8T80tlzXBzcbhjP2-96" vertex="1">
          <mxGeometry y="104" width="168" height="26" as="geometry" />
        </mxCell>
        <mxCell id="7YrM8T80tlzXBzcbhjP2-102" value="+ remove()" style="text;strokeColor=none;fillColor=none;align=left;verticalAlign=top;spacingLeft=4;spacingRight=4;overflow=hidden;rotatable=0;points=[[0,0.5],[1,0.5]];portConstraint=eastwest;whiteSpace=wrap;html=1;" parent="7YrM8T80tlzXBzcbhjP2-96" vertex="1">
          <mxGeometry y="130" width="168" height="26" as="geometry" />
        </mxCell>
        <mxCell id="7YrM8T80tlzXBzcbhjP2-103" value="+ isComposite()" style="text;strokeColor=none;fillColor=none;align=left;verticalAlign=top;spacingLeft=4;spacingRight=4;overflow=hidden;rotatable=0;points=[[0,0.5],[1,0.5]];portConstraint=eastwest;whiteSpace=wrap;html=1;" parent="7YrM8T80tlzXBzcbhjP2-96" vertex="1">
          <mxGeometry y="156" width="168" height="26" as="geometry" />
        </mxCell>
        <mxCell id="7YrM8T80tlzXBzcbhjP2-104" value="+ isVisible()" style="text;strokeColor=none;fillColor=none;align=left;verticalAlign=top;spacingLeft=4;spacingRight=4;overflow=hidden;rotatable=0;points=[[0,0.5],[1,0.5]];portConstraint=eastwest;whiteSpace=wrap;html=1;" parent="7YrM8T80tlzXBzcbhjP2-96" vertex="1">
          <mxGeometry y="182" width="168" height="26" as="geometry" />
        </mxCell>
        <mxCell id="7YrM8T80tlzXBzcbhjP2-105" value="+ begin()" style="text;strokeColor=none;fillColor=none;align=left;verticalAlign=top;spacingLeft=4;spacingRight=4;overflow=hidden;rotatable=0;points=[[0,0.5],[1,0.5]];portConstraint=eastwest;whiteSpace=wrap;html=1;" parent="7YrM8T80tlzXBzcbhjP2-96" vertex="1">
          <mxGeometry y="208" width="168" height="26" as="geometry" />
        </mxCell>
        <mxCell id="7YrM8T80tlzXBzcbhjP2-106" value="+ end()" style="text;strokeColor=none;fillColor=none;align=left;verticalAlign=top;spacingLeft=4;spacingRight=4;overflow=hidden;rotatable=0;points=[[0,0.5],[1,0.5]];portConstraint=eastwest;whiteSpace=wrap;html=1;" parent="7YrM8T80tlzXBzcbhjP2-96" vertex="1">
          <mxGeometry y="234" width="168" height="26" as="geometry" />
        </mxCell>
        <mxCell id="7YrM8T80tlzXBzcbhjP2-107" value="+ createMemento()" style="text;strokeColor=none;fillColor=none;align=left;verticalAlign=top;spacingLeft=4;spacingRight=4;overflow=hidden;rotatable=0;points=[[0,0.5],[1,0.5]];portConstraint=eastwest;whiteSpace=wrap;html=1;" parent="7YrM8T80tlzXBzcbhjP2-96" vertex="1">
          <mxGeometry y="260" width="168" height="26" as="geometry" />
        </mxCell>
        <mxCell id="7YrM8T80tlzXBzcbhjP2-108" value="+ restoreMem(Memento)" style="text;strokeColor=none;fillColor=none;align=left;verticalAlign=top;spacingLeft=4;spacingRight=4;overflow=hidden;rotatable=0;points=[[0,0.5],[1,0.5]];portConstraint=eastwest;whiteSpace=wrap;html=1;" parent="7YrM8T80tlzXBzcbhjP2-96" vertex="1">
          <mxGeometry y="286" width="168" height="26" as="geometry" />
        </mxCell>
        <mxCell id="7YrM8T80tlzXBzcbhjP2-111" value="" style="endArrow=block;endSize=16;endFill=0;html=1;rounded=0;fontSize=12;curved=1;exitX=0.5;exitY=0;exitDx=0;exitDy=0;" parent="1" source="7YrM8T80tlzXBzcbhjP2-83" target="7YrM8T80tlzXBzcbhjP2-108" edge="1">
          <mxGeometry width="160" relative="1" as="geometry">
            <mxPoint x="308" y="-940" as="sourcePoint" />
            <mxPoint x="468" y="-940" as="targetPoint" />
          </mxGeometry>
        </mxCell>
        <mxCell id="7YrM8T80tlzXBzcbhjP2-112" value="" style="endArrow=block;endSize=16;endFill=0;html=1;rounded=0;fontSize=12;curved=1;exitX=0.5;exitY=0;exitDx=0;exitDy=0;" parent="1" source="7YrM8T80tlzXBzcbhjP2-87" target="7YrM8T80tlzXBzcbhjP2-108" edge="1">
          <mxGeometry width="160" relative="1" as="geometry">
            <mxPoint x="308" y="-940" as="sourcePoint" />
            <mxPoint x="468" y="-940" as="targetPoint" />
          </mxGeometry>
        </mxCell>
        <mxCell id="7YrM8T80tlzXBzcbhjP2-113" value="ObjectComposite" style="swimlane;fontStyle=0;childLayout=stackLayout;horizontal=1;startSize=26;fillColor=none;horizontalStack=0;resizeParent=1;resizeParentMax=0;resizeLast=0;collapsible=1;marginBottom=0;whiteSpace=wrap;html=1;" parent="1" vertex="1">
          <mxGeometry x="534" y="-907" width="140" height="156" as="geometry" />
        </mxCell>
        <mxCell id="7YrM8T80tlzXBzcbhjP2-116" value="+ add()" style="text;strokeColor=none;fillColor=none;align=left;verticalAlign=top;spacingLeft=4;spacingRight=4;overflow=hidden;rotatable=0;points=[[0,0.5],[1,0.5]];portConstraint=eastwest;whiteSpace=wrap;html=1;" parent="7YrM8T80tlzXBzcbhjP2-113" vertex="1">
          <mxGeometry y="26" width="140" height="26" as="geometry" />
        </mxCell>
        <mxCell id="7YrM8T80tlzXBzcbhjP2-117" value="+ remove()" style="text;strokeColor=none;fillColor=none;align=left;verticalAlign=top;spacingLeft=4;spacingRight=4;overflow=hidden;rotatable=0;points=[[0,0.5],[1,0.5]];portConstraint=eastwest;whiteSpace=wrap;html=1;" parent="7YrM8T80tlzXBzcbhjP2-113" vertex="1">
          <mxGeometry y="52" width="140" height="26" as="geometry" />
        </mxCell>
        <mxCell id="7YrM8T80tlzXBzcbhjP2-119" value="+ begin()" style="text;strokeColor=none;fillColor=none;align=left;verticalAlign=top;spacingLeft=4;spacingRight=4;overflow=hidden;rotatable=0;points=[[0,0.5],[1,0.5]];portConstraint=eastwest;whiteSpace=wrap;html=1;" parent="7YrM8T80tlzXBzcbhjP2-113" vertex="1">
          <mxGeometry y="78" width="140" height="26" as="geometry" />
        </mxCell>
        <mxCell id="7YrM8T80tlzXBzcbhjP2-120" value="+ end()" style="text;strokeColor=none;fillColor=none;align=left;verticalAlign=top;spacingLeft=4;spacingRight=4;overflow=hidden;rotatable=0;points=[[0,0.5],[1,0.5]];portConstraint=eastwest;whiteSpace=wrap;html=1;" parent="7YrM8T80tlzXBzcbhjP2-113" vertex="1">
          <mxGeometry y="104" width="140" height="26" as="geometry" />
        </mxCell>
        <mxCell id="Be2TWUhUQRMpWD8doCn--1" value="+ getObject(id)" style="text;strokeColor=none;fillColor=none;align=left;verticalAlign=top;spacingLeft=4;spacingRight=4;overflow=hidden;rotatable=0;points=[[0,0.5],[1,0.5]];portConstraint=eastwest;whiteSpace=wrap;html=1;" vertex="1" parent="7YrM8T80tlzXBzcbhjP2-113">
          <mxGeometry y="130" width="140" height="26" as="geometry" />
        </mxCell>
        <mxCell id="7YrM8T80tlzXBzcbhjP2-121" value="" style="endArrow=block;endSize=16;endFill=0;html=1;rounded=0;fontSize=12;curved=1;entryX=1;entryY=0.5;entryDx=0;entryDy=0;exitX=0.5;exitY=0;exitDx=0;exitDy=0;" parent="1" source="7YrM8T80tlzXBzcbhjP2-113" target="7YrM8T80tlzXBzcbhjP2-104" edge="1">
          <mxGeometry width="160" relative="1" as="geometry">
            <mxPoint x="369" y="-851" as="sourcePoint" />
            <mxPoint x="529" y="-851" as="targetPoint" />
          </mxGeometry>
        </mxCell>
        <mxCell id="7YrM8T80tlzXBzcbhjP2-122" value="" style="endArrow=diamondThin;endFill=0;endSize=24;html=1;rounded=0;fontSize=12;curved=1;startArrow=open;startFill=0;entryX=0;entryY=0.5;entryDx=0;entryDy=0;exitX=1;exitY=0.5;exitDx=0;exitDy=0;" parent="1" source="7YrM8T80tlzXBzcbhjP2-105" target="7YrM8T80tlzXBzcbhjP2-117" edge="1">
          <mxGeometry width="160" relative="1" as="geometry">
            <mxPoint x="369" y="-851" as="sourcePoint" />
            <mxPoint x="529" y="-851" as="targetPoint" />
          </mxGeometry>
        </mxCell>
        <mxCell id="7YrM8T80tlzXBzcbhjP2-123" value="0..n" style="edgeLabel;html=1;align=center;verticalAlign=middle;resizable=0;points=[];fontSize=12;" parent="7YrM8T80tlzXBzcbhjP2-122" vertex="1" connectable="0">
          <mxGeometry x="0.2208" y="-2" relative="1" as="geometry">
            <mxPoint x="36" y="44" as="offset" />
          </mxGeometry>
        </mxCell>
        <mxCell id="7YrM8T80tlzXBzcbhjP2-124" value="Scene" style="swimlane;fontStyle=0;childLayout=stackLayout;horizontal=1;startSize=26;fillColor=none;horizontalStack=0;resizeParent=1;resizeParentMax=0;resizeLast=0;collapsible=1;marginBottom=0;whiteSpace=wrap;html=1;" parent="1" vertex="1">
          <mxGeometry x="528" y="-1210" width="140" height="130" as="geometry" />
        </mxCell>
        <mxCell id="7YrM8T80tlzXBzcbhjP2-125" value="+ addObject()" style="text;strokeColor=none;fillColor=none;align=left;verticalAlign=top;spacingLeft=4;spacingRight=4;overflow=hidden;rotatable=0;points=[[0,0.5],[1,0.5]];portConstraint=eastwest;whiteSpace=wrap;html=1;" parent="7YrM8T80tlzXBzcbhjP2-124" vertex="1">
          <mxGeometry y="26" width="140" height="26" as="geometry" />
        </mxCell>
        <mxCell id="7YrM8T80tlzXBzcbhjP2-126" value="+ removeObject()" style="text;strokeColor=none;fillColor=none;align=left;verticalAlign=top;spacingLeft=4;spacingRight=4;overflow=hidden;rotatable=0;points=[[0,0.5],[1,0.5]];portConstraint=eastwest;whiteSpace=wrap;html=1;" parent="7YrM8T80tlzXBzcbhjP2-124" vertex="1">
          <mxGeometry y="52" width="140" height="26" as="geometry" />
        </mxCell>
        <mxCell id="7YrM8T80tlzXBzcbhjP2-127" value="+ getObject(id)" style="text;strokeColor=none;fillColor=none;align=left;verticalAlign=top;spacingLeft=4;spacingRight=4;overflow=hidden;rotatable=0;points=[[0,0.5],[1,0.5]];portConstraint=eastwest;whiteSpace=wrap;html=1;" parent="7YrM8T80tlzXBzcbhjP2-124" vertex="1">
          <mxGeometry y="78" width="140" height="26" as="geometry" />
        </mxCell>
        <mxCell id="7YrM8T80tlzXBzcbhjP2-128" value="+ accept(Visitor)" style="text;strokeColor=none;fillColor=none;align=left;verticalAlign=top;spacingLeft=4;spacingRight=4;overflow=hidden;rotatable=0;points=[[0,0.5],[1,0.5]];portConstraint=eastwest;whiteSpace=wrap;html=1;" parent="7YrM8T80tlzXBzcbhjP2-124" vertex="1">
          <mxGeometry y="104" width="140" height="26" as="geometry" />
        </mxCell>
        <mxCell id="7YrM8T80tlzXBzcbhjP2-129" value="" style="endArrow=diamondThin;endFill=0;endSize=24;html=1;rounded=0;fontSize=12;curved=1;startArrow=open;startFill=0;entryX=0;entryY=0.5;entryDx=0;entryDy=0;exitX=1;exitY=0.5;exitDx=0;exitDy=0;" parent="1" target="7YrM8T80tlzXBzcbhjP2-126" edge="1">
          <mxGeometry width="160" relative="1" as="geometry">
            <mxPoint x="331" y="-1037" as="sourcePoint" />
            <mxPoint x="529" y="-1057" as="targetPoint" />
          </mxGeometry>
        </mxCell>
        <mxCell id="7YrM8T80tlzXBzcbhjP2-130" value="0..n" style="edgeLabel;html=1;align=center;verticalAlign=middle;resizable=0;points=[];fontSize=12;" parent="7YrM8T80tlzXBzcbhjP2-129" vertex="1" connectable="0">
          <mxGeometry x="0.1147" y="-3" relative="1" as="geometry">
            <mxPoint x="47" y="-48" as="offset" />
          </mxGeometry>
        </mxCell>
        <mxCell id="7YrM8T80tlzXBzcbhjP2-131" value="HistoryManager" style="swimlane;fontStyle=0;childLayout=stackLayout;horizontal=1;startSize=26;fillColor=none;horizontalStack=0;resizeParent=1;resizeParentMax=0;resizeLast=0;collapsible=1;marginBottom=0;whiteSpace=wrap;html=1;" parent="1" vertex="1">
          <mxGeometry x="777" y="-1092" width="140" height="78" as="geometry" />
        </mxCell>
        <mxCell id="7YrM8T80tlzXBzcbhjP2-132" value="+ getPrevState()" style="text;strokeColor=none;fillColor=none;align=left;verticalAlign=top;spacingLeft=4;spacingRight=4;overflow=hidden;rotatable=0;points=[[0,0.5],[1,0.5]];portConstraint=eastwest;whiteSpace=wrap;html=1;" parent="7YrM8T80tlzXBzcbhjP2-131" vertex="1">
          <mxGeometry y="26" width="140" height="26" as="geometry" />
        </mxCell>
        <mxCell id="7YrM8T80tlzXBzcbhjP2-133" value="+ saveState()" style="text;strokeColor=none;fillColor=none;align=left;verticalAlign=top;spacingLeft=4;spacingRight=4;overflow=hidden;rotatable=0;points=[[0,0.5],[1,0.5]];portConstraint=eastwest;whiteSpace=wrap;html=1;" parent="7YrM8T80tlzXBzcbhjP2-131" vertex="1">
          <mxGeometry y="52" width="140" height="26" as="geometry" />
        </mxCell>
        <mxCell id="7YrM8T80tlzXBzcbhjP2-135" value="" style="endArrow=diamondThin;endFill=0;endSize=24;html=1;rounded=0;fontSize=12;curved=1;startArrow=open;startFill=0;exitX=1;exitY=0.5;exitDx=0;exitDy=0;entryX=0;entryY=0.5;entryDx=0;entryDy=0;" parent="1" source="7YrM8T80tlzXBzcbhjP2-126" target="7YrM8T80tlzXBzcbhjP2-132" edge="1">
          <mxGeometry width="160" relative="1" as="geometry">
            <mxPoint x="726" y="-1133" as="sourcePoint" />
            <mxPoint x="886" y="-1133" as="targetPoint" />
          </mxGeometry>
        </mxCell>
        <mxCell id="7YrM8T80tlzXBzcbhjP2-136" value="" style="endArrow=diamondThin;endFill=0;endSize=24;html=1;rounded=0;fontSize=12;curved=1;startArrow=open;startFill=0;entryX=0;entryY=0.5;entryDx=0;entryDy=0;exitX=1;exitY=0.5;exitDx=0;exitDy=0;" parent="1" source="7YrM8T80tlzXBzcbhjP2-101" target="7YrM8T80tlzXBzcbhjP2-133" edge="1">
          <mxGeometry width="160" relative="1" as="geometry">
            <mxPoint x="537" y="-989" as="sourcePoint" />
            <mxPoint x="697" y="-989" as="targetPoint" />
          </mxGeometry>
        </mxCell>
        <mxCell id="7YrM8T80tlzXBzcbhjP2-137" value="0..n" style="edgeLabel;html=1;align=center;verticalAlign=middle;resizable=0;points=[];fontSize=12;" parent="7YrM8T80tlzXBzcbhjP2-136" vertex="1" connectable="0">
          <mxGeometry x="0.7753" y="-3" relative="1" as="geometry">
            <mxPoint x="13" y="-18" as="offset" />
          </mxGeometry>
        </mxCell>
        <mxCell id="7YrM8T80tlzXBzcbhjP2-138" value="CareTaker" style="swimlane;fontStyle=0;childLayout=stackLayout;horizontal=1;startSize=26;fillColor=none;horizontalStack=0;resizeParent=1;resizeParentMax=0;resizeLast=0;collapsible=1;marginBottom=0;whiteSpace=wrap;html=1;" parent="1" vertex="1">
          <mxGeometry x="777" y="-949" width="140" height="78" as="geometry" />
        </mxCell>
        <mxCell id="7YrM8T80tlzXBzcbhjP2-139" value="+ set(Memento)" style="text;strokeColor=none;fillColor=none;align=left;verticalAlign=top;spacingLeft=4;spacingRight=4;overflow=hidden;rotatable=0;points=[[0,0.5],[1,0.5]];portConstraint=eastwest;whiteSpace=wrap;html=1;" parent="7YrM8T80tlzXBzcbhjP2-138" vertex="1">
          <mxGeometry y="26" width="140" height="26" as="geometry" />
        </mxCell>
        <mxCell id="7YrM8T80tlzXBzcbhjP2-140" value="+ get()" style="text;strokeColor=none;fillColor=none;align=left;verticalAlign=top;spacingLeft=4;spacingRight=4;overflow=hidden;rotatable=0;points=[[0,0.5],[1,0.5]];portConstraint=eastwest;whiteSpace=wrap;html=1;" parent="7YrM8T80tlzXBzcbhjP2-138" vertex="1">
          <mxGeometry y="52" width="140" height="26" as="geometry" />
        </mxCell>
        <mxCell id="7YrM8T80tlzXBzcbhjP2-142" value="Memento" style="swimlane;fontStyle=0;childLayout=stackLayout;horizontal=1;startSize=26;fillColor=none;horizontalStack=0;resizeParent=1;resizeParentMax=0;resizeLast=0;collapsible=1;marginBottom=0;whiteSpace=wrap;html=1;" parent="1" vertex="1">
          <mxGeometry x="777" y="-816" width="140" height="78" as="geometry" />
        </mxCell>
        <mxCell id="7YrM8T80tlzXBzcbhjP2-143" value="+ set(Matrix)" style="text;strokeColor=none;fillColor=none;align=left;verticalAlign=top;spacingLeft=4;spacingRight=4;overflow=hidden;rotatable=0;points=[[0,0.5],[1,0.5]];portConstraint=eastwest;whiteSpace=wrap;html=1;" parent="7YrM8T80tlzXBzcbhjP2-142" vertex="1">
          <mxGeometry y="26" width="140" height="26" as="geometry" />
        </mxCell>
        <mxCell id="7YrM8T80tlzXBzcbhjP2-144" value="+ get()" style="text;strokeColor=none;fillColor=none;align=left;verticalAlign=top;spacingLeft=4;spacingRight=4;overflow=hidden;rotatable=0;points=[[0,0.5],[1,0.5]];portConstraint=eastwest;whiteSpace=wrap;html=1;" parent="7YrM8T80tlzXBzcbhjP2-142" vertex="1">
          <mxGeometry y="52" width="140" height="26" as="geometry" />
        </mxCell>
        <mxCell id="7YrM8T80tlzXBzcbhjP2-146" value="" style="endArrow=diamondThin;endFill=0;endSize=24;html=1;rounded=0;fontSize=12;curved=1;startArrow=open;startFill=0;exitX=0.5;exitY=0;exitDx=0;exitDy=0;" parent="1" source="7YrM8T80tlzXBzcbhjP2-142" target="7YrM8T80tlzXBzcbhjP2-140" edge="1">
          <mxGeometry width="160" relative="1" as="geometry">
            <mxPoint x="991" y="-900" as="sourcePoint" />
            <mxPoint x="873" y="-852" as="targetPoint" />
          </mxGeometry>
        </mxCell>
        <mxCell id="7YrM8T80tlzXBzcbhjP2-147" value="0..n" style="edgeLabel;html=1;align=center;verticalAlign=middle;resizable=0;points=[];fontSize=12;" parent="7YrM8T80tlzXBzcbhjP2-146" vertex="1" connectable="0">
          <mxGeometry x="-0.3091" y="3" relative="1" as="geometry">
            <mxPoint x="16" y="-7" as="offset" />
          </mxGeometry>
        </mxCell>
        <mxCell id="7YrM8T80tlzXBzcbhjP2-148" value="" style="endArrow=diamondThin;endFill=0;endSize=24;html=1;rounded=0;fontSize=12;curved=1;startArrow=open;startFill=0;exitX=0.5;exitY=0;exitDx=0;exitDy=0;entryX=0.479;entryY=0.923;entryDx=0;entryDy=0;entryPerimeter=0;" parent="1" source="7YrM8T80tlzXBzcbhjP2-138" target="7YrM8T80tlzXBzcbhjP2-133" edge="1">
          <mxGeometry width="160" relative="1" as="geometry">
            <mxPoint x="991" y="-900" as="sourcePoint" />
            <mxPoint x="847" y="-1003" as="targetPoint" />
          </mxGeometry>
        </mxCell>
        <mxCell id="7YrM8T80tlzXBzcbhjP2-149" value="0..n" style="edgeLabel;html=1;align=center;verticalAlign=middle;resizable=0;points=[];fontSize=12;" parent="7YrM8T80tlzXBzcbhjP2-148" vertex="1" connectable="0">
          <mxGeometry x="-0.1062" y="-1" relative="1" as="geometry">
            <mxPoint x="17" y="-2" as="offset" />
          </mxGeometry>
        </mxCell>
        <mxCell id="7YrM8T80tlzXBzcbhjP2-150" value="" style="endArrow=open;endSize=12;dashed=1;html=1;rounded=0;fontSize=12;curved=1;entryX=1;entryY=0.5;entryDx=0;entryDy=0;exitX=0;exitY=0.25;exitDx=0;exitDy=0;" parent="1" source="7YrM8T80tlzXBzcbhjP2-138" target="7YrM8T80tlzXBzcbhjP2-103" edge="1">
          <mxGeometry width="160" relative="1" as="geometry">
            <mxPoint x="656" y="-916" as="sourcePoint" />
            <mxPoint x="816" y="-916" as="targetPoint" />
          </mxGeometry>
        </mxCell>
        <mxCell id="7YrM8T80tlzXBzcbhjP2-151" value="HistoryManagerCreator" style="swimlane;fontStyle=0;childLayout=stackLayout;horizontal=1;startSize=26;fillColor=none;horizontalStack=0;resizeParent=1;resizeParentMax=0;resizeLast=0;collapsible=1;marginBottom=0;whiteSpace=wrap;html=1;" parent="1" vertex="1">
          <mxGeometry x="775" y="-1190" width="140" height="52" as="geometry" />
        </mxCell>
        <mxCell id="7YrM8T80tlzXBzcbhjP2-152" value="+ get()" style="text;strokeColor=none;fillColor=none;align=left;verticalAlign=top;spacingLeft=4;spacingRight=4;overflow=hidden;rotatable=0;points=[[0,0.5],[1,0.5]];portConstraint=eastwest;whiteSpace=wrap;html=1;" parent="7YrM8T80tlzXBzcbhjP2-151" vertex="1">
          <mxGeometry y="26" width="140" height="26" as="geometry" />
        </mxCell>
        <mxCell id="7YrM8T80tlzXBzcbhjP2-155" value="" style="endArrow=open;endFill=1;endSize=12;html=1;rounded=0;fontSize=12;curved=1;entryX=0.5;entryY=0;entryDx=0;entryDy=0;" parent="1" source="7YrM8T80tlzXBzcbhjP2-152" target="7YrM8T80tlzXBzcbhjP2-131" edge="1">
          <mxGeometry width="160" relative="1" as="geometry">
            <mxPoint x="864" y="-1112" as="sourcePoint" />
            <mxPoint x="804" y="-1006" as="targetPoint" />
          </mxGeometry>
        </mxCell>
        <mxCell id="7YrM8T80tlzXBzcbhjP2-156" value="SceneManager" style="swimlane;fontStyle=0;childLayout=stackLayout;horizontal=1;startSize=26;fillColor=none;horizontalStack=0;resizeParent=1;resizeParentMax=0;resizeLast=0;collapsible=1;marginBottom=0;whiteSpace=wrap;html=1;" parent="1" vertex="1">
          <mxGeometry x="333" y="-1340" width="140" height="78" as="geometry" />
        </mxCell>
        <mxCell id="7YrM8T80tlzXBzcbhjP2-158" value="+ setScene(Scene)" style="text;strokeColor=none;fillColor=none;align=left;verticalAlign=top;spacingLeft=4;spacingRight=4;overflow=hidden;rotatable=0;points=[[0,0.5],[1,0.5]];portConstraint=eastwest;whiteSpace=wrap;html=1;" parent="7YrM8T80tlzXBzcbhjP2-156" vertex="1">
          <mxGeometry y="26" width="140" height="26" as="geometry" />
        </mxCell>
        <mxCell id="7YrM8T80tlzXBzcbhjP2-157" value="+ getScene()" style="text;strokeColor=none;fillColor=none;align=left;verticalAlign=top;spacingLeft=4;spacingRight=4;overflow=hidden;rotatable=0;points=[[0,0.5],[1,0.5]];portConstraint=eastwest;whiteSpace=wrap;html=1;" parent="7YrM8T80tlzXBzcbhjP2-156" vertex="1">
          <mxGeometry y="52" width="140" height="26" as="geometry" />
        </mxCell>
        <mxCell id="7YrM8T80tlzXBzcbhjP2-160" value="" style="endArrow=diamondThin;endFill=0;endSize=24;html=1;rounded=0;fontSize=12;curved=1;startArrow=open;startFill=0;entryX=1;entryY=0.5;entryDx=0;entryDy=0;exitX=0.5;exitY=0;exitDx=0;exitDy=0;" parent="1" source="7YrM8T80tlzXBzcbhjP2-124" target="7YrM8T80tlzXBzcbhjP2-157" edge="1">
          <mxGeometry width="160" relative="1" as="geometry">
            <mxPoint x="366" y="-1199" as="sourcePoint" />
            <mxPoint x="526" y="-1199" as="targetPoint" />
          </mxGeometry>
        </mxCell>
        <mxCell id="7YrM8T80tlzXBzcbhjP2-161" value="SceneManagerCreator" style="swimlane;fontStyle=0;childLayout=stackLayout;horizontal=1;startSize=26;fillColor=none;horizontalStack=0;resizeParent=1;resizeParentMax=0;resizeLast=0;collapsible=1;marginBottom=0;whiteSpace=wrap;html=1;" parent="1" vertex="1">
          <mxGeometry x="333" y="-1421" width="140" height="52" as="geometry" />
        </mxCell>
        <mxCell id="7YrM8T80tlzXBzcbhjP2-162" value="+ get()" style="text;strokeColor=none;fillColor=none;align=left;verticalAlign=top;spacingLeft=4;spacingRight=4;overflow=hidden;rotatable=0;points=[[0,0.5],[1,0.5]];portConstraint=eastwest;whiteSpace=wrap;html=1;" parent="7YrM8T80tlzXBzcbhjP2-161" vertex="1">
          <mxGeometry y="26" width="140" height="26" as="geometry" />
        </mxCell>
        <mxCell id="7YrM8T80tlzXBzcbhjP2-167" value="" style="endArrow=open;endFill=1;endSize=12;html=1;rounded=0;fontSize=12;curved=1;entryX=0.5;entryY=0;entryDx=0;entryDy=0;" parent="1" source="7YrM8T80tlzXBzcbhjP2-162" target="7YrM8T80tlzXBzcbhjP2-156" edge="1">
          <mxGeometry width="160" relative="1" as="geometry">
            <mxPoint x="320" y="-1113" as="sourcePoint" />
            <mxPoint x="480" y="-1113" as="targetPoint" />
          </mxGeometry>
        </mxCell>
        <mxCell id="7YrM8T80tlzXBzcbhjP2-168" value="Command" style="swimlane;fontStyle=0;childLayout=stackLayout;horizontal=1;startSize=26;fillColor=none;horizontalStack=0;resizeParent=1;resizeParentMax=0;resizeLast=0;collapsible=1;marginBottom=0;whiteSpace=wrap;html=1;" parent="1" vertex="1">
          <mxGeometry x="128" y="-1506" width="140" height="52" as="geometry" />
        </mxCell>
        <mxCell id="7YrM8T80tlzXBzcbhjP2-169" value="+ execute()" style="text;strokeColor=none;fillColor=none;align=left;verticalAlign=top;spacingLeft=4;spacingRight=4;overflow=hidden;rotatable=0;points=[[0,0.5],[1,0.5]];portConstraint=eastwest;whiteSpace=wrap;html=1;" parent="7YrM8T80tlzXBzcbhjP2-168" vertex="1">
          <mxGeometry y="26" width="140" height="26" as="geometry" />
        </mxCell>
        <mxCell id="7YrM8T80tlzXBzcbhjP2-173" value="" style="endArrow=open;endSize=12;dashed=1;html=1;rounded=0;fontSize=12;curved=1;exitX=0.486;exitY=1.038;exitDx=0;exitDy=0;exitPerimeter=0;entryX=0;entryY=0.5;entryDx=0;entryDy=0;" parent="1" source="7YrM8T80tlzXBzcbhjP2-169" target="7YrM8T80tlzXBzcbhjP2-162" edge="1">
          <mxGeometry width="160" relative="1" as="geometry">
            <mxPoint x="-38" y="-1336" as="sourcePoint" />
            <mxPoint x="122" y="-1336" as="targetPoint" />
          </mxGeometry>
        </mxCell>
        <mxCell id="7YrM8T80tlzXBzcbhjP2-174" value="Facade" style="swimlane;fontStyle=0;childLayout=stackLayout;horizontal=1;startSize=26;fillColor=none;horizontalStack=0;resizeParent=1;resizeParentMax=0;resizeLast=0;collapsible=1;marginBottom=0;whiteSpace=wrap;html=1;" parent="1" vertex="1">
          <mxGeometry x="128" y="-1585" width="140" height="52" as="geometry" />
        </mxCell>
        <mxCell id="7YrM8T80tlzXBzcbhjP2-175" value="+ execute()" style="text;strokeColor=none;fillColor=none;align=left;verticalAlign=top;spacingLeft=4;spacingRight=4;overflow=hidden;rotatable=0;points=[[0,0.5],[1,0.5]];portConstraint=eastwest;whiteSpace=wrap;html=1;" parent="7YrM8T80tlzXBzcbhjP2-174" vertex="1">
          <mxGeometry y="26" width="140" height="26" as="geometry" />
        </mxCell>
        <mxCell id="7YrM8T80tlzXBzcbhjP2-178" value="" style="endArrow=open;endSize=12;dashed=1;html=1;rounded=0;fontSize=12;curved=1;entryX=0.5;entryY=0;entryDx=0;entryDy=0;" parent="1" source="7YrM8T80tlzXBzcbhjP2-175" target="7YrM8T80tlzXBzcbhjP2-168" edge="1">
          <mxGeometry width="160" relative="1" as="geometry">
            <mxPoint x="11" y="-1477" as="sourcePoint" />
            <mxPoint x="171" y="-1477" as="targetPoint" />
          </mxGeometry>
        </mxCell>
        <mxCell id="7YrM8T80tlzXBzcbhjP2-179" value="CameraManager" style="swimlane;fontStyle=0;childLayout=stackLayout;horizontal=1;startSize=26;fillColor=none;horizontalStack=0;resizeParent=1;resizeParentMax=0;resizeLast=0;collapsible=1;marginBottom=0;whiteSpace=wrap;html=1;" parent="1" vertex="1">
          <mxGeometry x="675" y="-509" width="140" height="182" as="geometry" />
        </mxCell>
        <mxCell id="7YrM8T80tlzXBzcbhjP2-180" value="+ getActiveCamera()" style="text;strokeColor=none;fillColor=none;align=left;verticalAlign=top;spacingLeft=4;spacingRight=4;overflow=hidden;rotatable=0;points=[[0,0.5],[1,0.5]];portConstraint=eastwest;whiteSpace=wrap;html=1;" parent="7YrM8T80tlzXBzcbhjP2-179" vertex="1">
          <mxGeometry y="26" width="140" height="26" as="geometry" />
        </mxCell>
        <mxCell id="7YrM8T80tlzXBzcbhjP2-181" value="+ setActiveCamera()" style="text;strokeColor=none;fillColor=none;align=left;verticalAlign=top;spacingLeft=4;spacingRight=4;overflow=hidden;rotatable=0;points=[[0,0.5],[1,0.5]];portConstraint=eastwest;whiteSpace=wrap;html=1;" parent="7YrM8T80tlzXBzcbhjP2-179" vertex="1">
          <mxGeometry y="52" width="140" height="26" as="geometry" />
        </mxCell>
        <mxCell id="7YrM8T80tlzXBzcbhjP2-183" value="+ rotate()" style="text;strokeColor=none;fillColor=none;align=left;verticalAlign=top;spacingLeft=4;spacingRight=4;overflow=hidden;rotatable=0;points=[[0,0.5],[1,0.5]];portConstraint=eastwest;whiteSpace=wrap;html=1;" parent="7YrM8T80tlzXBzcbhjP2-179" vertex="1">
          <mxGeometry y="78" width="140" height="26" as="geometry" />
        </mxCell>
        <mxCell id="7YrM8T80tlzXBzcbhjP2-184" value="+ remove()" style="text;strokeColor=none;fillColor=none;align=left;verticalAlign=top;spacingLeft=4;spacingRight=4;overflow=hidden;rotatable=0;points=[[0,0.5],[1,0.5]];portConstraint=eastwest;whiteSpace=wrap;html=1;" parent="7YrM8T80tlzXBzcbhjP2-179" vertex="1">
          <mxGeometry y="104" width="140" height="26" as="geometry" />
        </mxCell>
        <mxCell id="7YrM8T80tlzXBzcbhjP2-185" value="+ createNew()" style="text;strokeColor=none;fillColor=none;align=left;verticalAlign=top;spacingLeft=4;spacingRight=4;overflow=hidden;rotatable=0;points=[[0,0.5],[1,0.5]];portConstraint=eastwest;whiteSpace=wrap;html=1;" parent="7YrM8T80tlzXBzcbhjP2-179" vertex="1">
          <mxGeometry y="130" width="140" height="26" as="geometry" />
        </mxCell>
        <mxCell id="Be2TWUhUQRMpWD8doCn--2" value="+ move()" style="text;strokeColor=none;fillColor=none;align=left;verticalAlign=top;spacingLeft=4;spacingRight=4;overflow=hidden;rotatable=0;points=[[0,0.5],[1,0.5]];portConstraint=eastwest;whiteSpace=wrap;html=1;" vertex="1" parent="7YrM8T80tlzXBzcbhjP2-179">
          <mxGeometry y="156" width="140" height="26" as="geometry" />
        </mxCell>
        <mxCell id="7YrM8T80tlzXBzcbhjP2-186" value="CameraManagerCreator" style="swimlane;fontStyle=0;childLayout=stackLayout;horizontal=1;startSize=26;fillColor=none;horizontalStack=0;resizeParent=1;resizeParentMax=0;resizeLast=0;collapsible=1;marginBottom=0;whiteSpace=wrap;html=1;" parent="1" vertex="1">
          <mxGeometry x="855" y="-457" width="140" height="52" as="geometry" />
        </mxCell>
        <mxCell id="7YrM8T80tlzXBzcbhjP2-187" value="+ get()" style="text;strokeColor=none;fillColor=none;align=left;verticalAlign=top;spacingLeft=4;spacingRight=4;overflow=hidden;rotatable=0;points=[[0,0.5],[1,0.5]];portConstraint=eastwest;whiteSpace=wrap;html=1;" parent="7YrM8T80tlzXBzcbhjP2-186" vertex="1">
          <mxGeometry y="26" width="140" height="26" as="geometry" />
        </mxCell>
        <mxCell id="7YrM8T80tlzXBzcbhjP2-190" value="" style="endArrow=open;endFill=1;endSize=12;html=1;rounded=0;fontSize=12;curved=1;exitX=0;exitY=0.5;exitDx=0;exitDy=0;entryX=1;entryY=0.5;entryDx=0;entryDy=0;" parent="1" source="7YrM8T80tlzXBzcbhjP2-187" edge="1">
          <mxGeometry width="160" relative="1" as="geometry">
            <mxPoint x="702" y="-417" as="sourcePoint" />
            <mxPoint x="815" y="-418" as="targetPoint" />
          </mxGeometry>
        </mxCell>
        <mxCell id="7YrM8T80tlzXBzcbhjP2-191" value="" style="endArrow=open;endSize=12;dashed=1;html=1;rounded=0;fontSize=12;curved=1;exitX=0;exitY=0.5;exitDx=0;exitDy=0;entryX=1;entryY=0.5;entryDx=0;entryDy=0;" parent="1" target="7YrM8T80tlzXBzcbhjP2-80" edge="1">
          <mxGeometry width="160" relative="1" as="geometry">
            <mxPoint x="675" y="-418" as="sourcePoint" />
            <mxPoint x="921" y="-386" as="targetPoint" />
          </mxGeometry>
        </mxCell>
        <mxCell id="7YrM8T80tlzXBzcbhjP2-192" value="" style="endArrow=open;endSize=12;dashed=1;html=1;rounded=0;fontSize=12;curved=1;exitX=1;exitY=0.5;exitDx=0;exitDy=0;entryX=1;entryY=0.5;entryDx=0;entryDy=0;" parent="1" source="7YrM8T80tlzXBzcbhjP2-169" target="7YrM8T80tlzXBzcbhjP2-187" edge="1">
          <mxGeometry width="160" relative="1" as="geometry">
            <mxPoint x="351" y="-1462" as="sourcePoint" />
            <mxPoint x="1082" y="-783" as="targetPoint" />
            <Array as="points">
              <mxPoint x="428" y="-1465" />
              <mxPoint x="598" y="-1396" />
              <mxPoint x="653" y="-1257" />
              <mxPoint x="1066" y="-1188" />
              <mxPoint x="1135" y="-682" />
            </Array>
          </mxGeometry>
        </mxCell>
        <mxCell id="7YrM8T80tlzXBzcbhjP2-193" value="DrawManagerCreator" style="swimlane;fontStyle=0;childLayout=stackLayout;horizontal=1;startSize=26;fillColor=none;horizontalStack=0;resizeParent=1;resizeParentMax=0;resizeLast=0;collapsible=1;marginBottom=0;whiteSpace=wrap;html=1;" parent="1" vertex="1">
          <mxGeometry x="-84" y="-1369" width="140" height="52" as="geometry" />
        </mxCell>
        <mxCell id="7YrM8T80tlzXBzcbhjP2-194" value="+ get()" style="text;strokeColor=none;fillColor=none;align=left;verticalAlign=top;spacingLeft=4;spacingRight=4;overflow=hidden;rotatable=0;points=[[0,0.5],[1,0.5]];portConstraint=eastwest;whiteSpace=wrap;html=1;" parent="7YrM8T80tlzXBzcbhjP2-193" vertex="1">
          <mxGeometry y="26" width="140" height="26" as="geometry" />
        </mxCell>
        <mxCell id="7YrM8T80tlzXBzcbhjP2-197" value="DrawManager" style="swimlane;fontStyle=0;childLayout=stackLayout;horizontal=1;startSize=26;fillColor=none;horizontalStack=0;resizeParent=1;resizeParentMax=0;resizeLast=0;collapsible=1;marginBottom=0;whiteSpace=wrap;html=1;" parent="1" vertex="1">
          <mxGeometry x="-265" y="-1369" width="140" height="78" as="geometry" />
        </mxCell>
        <mxCell id="7YrM8T80tlzXBzcbhjP2-198" value="+ drawScene()" style="text;strokeColor=none;fillColor=none;align=left;verticalAlign=top;spacingLeft=4;spacingRight=4;overflow=hidden;rotatable=0;points=[[0,0.5],[1,0.5]];portConstraint=eastwest;whiteSpace=wrap;html=1;" parent="7YrM8T80tlzXBzcbhjP2-197" vertex="1">
          <mxGeometry y="26" width="140" height="26" as="geometry" />
        </mxCell>
        <mxCell id="Be2TWUhUQRMpWD8doCn--3" value="+ setDrawer()" style="text;strokeColor=none;fillColor=none;align=left;verticalAlign=top;spacingLeft=4;spacingRight=4;overflow=hidden;rotatable=0;points=[[0,0.5],[1,0.5]];portConstraint=eastwest;whiteSpace=wrap;html=1;" vertex="1" parent="7YrM8T80tlzXBzcbhjP2-197">
          <mxGeometry y="52" width="140" height="26" as="geometry" />
        </mxCell>
        <mxCell id="7YrM8T80tlzXBzcbhjP2-201" value="BaseDrawer" style="swimlane;fontStyle=0;childLayout=stackLayout;horizontal=1;startSize=26;fillColor=none;horizontalStack=0;resizeParent=1;resizeParentMax=0;resizeLast=0;collapsible=1;marginBottom=0;whiteSpace=wrap;html=1;" parent="1" vertex="1">
          <mxGeometry x="-496" y="-1369" width="140" height="78" as="geometry" />
        </mxCell>
        <mxCell id="7YrM8T80tlzXBzcbhjP2-202" value="+ drawLine()" style="text;strokeColor=none;fillColor=none;align=left;verticalAlign=top;spacingLeft=4;spacingRight=4;overflow=hidden;rotatable=0;points=[[0,0.5],[1,0.5]];portConstraint=eastwest;whiteSpace=wrap;html=1;" parent="7YrM8T80tlzXBzcbhjP2-201" vertex="1">
          <mxGeometry y="26" width="140" height="26" as="geometry" />
        </mxCell>
        <mxCell id="7YrM8T80tlzXBzcbhjP2-203" value="+ clear()" style="text;strokeColor=none;fillColor=none;align=left;verticalAlign=top;spacingLeft=4;spacingRight=4;overflow=hidden;rotatable=0;points=[[0,0.5],[1,0.5]];portConstraint=eastwest;whiteSpace=wrap;html=1;" parent="7YrM8T80tlzXBzcbhjP2-201" vertex="1">
          <mxGeometry y="52" width="140" height="26" as="geometry" />
        </mxCell>
        <mxCell id="7YrM8T80tlzXBzcbhjP2-205" value="QtDrawer" style="swimlane;fontStyle=0;childLayout=stackLayout;horizontal=1;startSize=26;fillColor=none;horizontalStack=0;resizeParent=1;resizeParentMax=0;resizeLast=0;collapsible=1;marginBottom=0;whiteSpace=wrap;html=1;" parent="1" vertex="1">
          <mxGeometry x="-497" y="-1242" width="140" height="78" as="geometry" />
        </mxCell>
        <mxCell id="7YrM8T80tlzXBzcbhjP2-206" value="+ drawLine()" style="text;strokeColor=none;fillColor=none;align=left;verticalAlign=top;spacingLeft=4;spacingRight=4;overflow=hidden;rotatable=0;points=[[0,0.5],[1,0.5]];portConstraint=eastwest;whiteSpace=wrap;html=1;" parent="7YrM8T80tlzXBzcbhjP2-205" vertex="1">
          <mxGeometry y="26" width="140" height="26" as="geometry" />
        </mxCell>
        <mxCell id="7YrM8T80tlzXBzcbhjP2-207" value="+ clear()" style="text;strokeColor=none;fillColor=none;align=left;verticalAlign=top;spacingLeft=4;spacingRight=4;overflow=hidden;rotatable=0;points=[[0,0.5],[1,0.5]];portConstraint=eastwest;whiteSpace=wrap;html=1;" parent="7YrM8T80tlzXBzcbhjP2-205" vertex="1">
          <mxGeometry y="52" width="140" height="26" as="geometry" />
        </mxCell>
        <mxCell id="7YrM8T80tlzXBzcbhjP2-209" value="QtFactory" style="swimlane;fontStyle=0;childLayout=stackLayout;horizontal=1;startSize=26;fillColor=none;horizontalStack=0;resizeParent=1;resizeParentMax=0;resizeLast=0;collapsible=1;marginBottom=0;whiteSpace=wrap;html=1;" parent="1" vertex="1">
          <mxGeometry x="-676" y="-1242" width="140" height="52" as="geometry" />
        </mxCell>
        <mxCell id="7YrM8T80tlzXBzcbhjP2-210" value="+ create()" style="text;strokeColor=none;fillColor=none;align=left;verticalAlign=top;spacingLeft=4;spacingRight=4;overflow=hidden;rotatable=0;points=[[0,0.5],[1,0.5]];portConstraint=eastwest;whiteSpace=wrap;html=1;" parent="7YrM8T80tlzXBzcbhjP2-209" vertex="1">
          <mxGeometry y="26" width="140" height="26" as="geometry" />
        </mxCell>
        <mxCell id="7YrM8T80tlzXBzcbhjP2-213" value="AbstractFactory" style="swimlane;fontStyle=0;childLayout=stackLayout;horizontal=1;startSize=26;fillColor=none;horizontalStack=0;resizeParent=1;resizeParentMax=0;resizeLast=0;collapsible=1;marginBottom=0;whiteSpace=wrap;html=1;" parent="1" vertex="1">
          <mxGeometry x="-676" y="-1369" width="140" height="52" as="geometry" />
        </mxCell>
        <mxCell id="7YrM8T80tlzXBzcbhjP2-214" value="+ create()" style="text;strokeColor=none;fillColor=none;align=left;verticalAlign=top;spacingLeft=4;spacingRight=4;overflow=hidden;rotatable=0;points=[[0,0.5],[1,0.5]];portConstraint=eastwest;whiteSpace=wrap;html=1;" parent="7YrM8T80tlzXBzcbhjP2-213" vertex="1">
          <mxGeometry y="26" width="140" height="26" as="geometry" />
        </mxCell>
        <mxCell id="7YrM8T80tlzXBzcbhjP2-217" value="DrawerSolution" style="swimlane;fontStyle=0;childLayout=stackLayout;horizontal=1;startSize=26;fillColor=none;horizontalStack=0;resizeParent=1;resizeParentMax=0;resizeLast=0;collapsible=1;marginBottom=0;whiteSpace=wrap;html=1;" parent="1" vertex="1">
          <mxGeometry x="-676" y="-1506" width="140" height="52" as="geometry" />
        </mxCell>
        <mxCell id="7YrM8T80tlzXBzcbhjP2-218" value="+ create()" style="text;strokeColor=none;fillColor=none;align=left;verticalAlign=top;spacingLeft=4;spacingRight=4;overflow=hidden;rotatable=0;points=[[0,0.5],[1,0.5]];portConstraint=eastwest;whiteSpace=wrap;html=1;" parent="7YrM8T80tlzXBzcbhjP2-217" vertex="1">
          <mxGeometry y="26" width="140" height="26" as="geometry" />
        </mxCell>
        <mxCell id="7YrM8T80tlzXBzcbhjP2-221" value="" style="endArrow=block;endSize=16;endFill=0;html=1;rounded=0;fontSize=12;curved=1;exitX=0.5;exitY=0;exitDx=0;exitDy=0;" parent="1" source="7YrM8T80tlzXBzcbhjP2-205" target="7YrM8T80tlzXBzcbhjP2-203" edge="1">
          <mxGeometry width="160" relative="1" as="geometry">
            <mxPoint x="-449" y="-1299" as="sourcePoint" />
            <mxPoint x="-430.05999999999995" y="-1265.676" as="targetPoint" />
          </mxGeometry>
        </mxCell>
        <mxCell id="7YrM8T80tlzXBzcbhjP2-222" value="" style="endArrow=block;endSize=16;endFill=0;html=1;rounded=0;fontSize=12;curved=1;exitX=0.5;exitY=0;exitDx=0;exitDy=0;" parent="1" source="7YrM8T80tlzXBzcbhjP2-209" target="7YrM8T80tlzXBzcbhjP2-214" edge="1">
          <mxGeometry width="160" relative="1" as="geometry">
            <mxPoint x="-449" y="-1299" as="sourcePoint" />
            <mxPoint x="-606" y="-1266.326" as="targetPoint" />
          </mxGeometry>
        </mxCell>
        <mxCell id="7YrM8T80tlzXBzcbhjP2-223" value="" style="endArrow=open;endFill=1;endSize=12;html=1;rounded=0;fontSize=12;curved=1;exitX=1;exitY=0.5;exitDx=0;exitDy=0;entryX=0;entryY=0.5;entryDx=0;entryDy=0;" parent="1" source="7YrM8T80tlzXBzcbhjP2-214" target="7YrM8T80tlzXBzcbhjP2-203" edge="1">
          <mxGeometry width="160" relative="1" as="geometry">
            <mxPoint x="-536" y="-1304" as="sourcePoint" />
            <mxPoint x="-289" y="-1299" as="targetPoint" />
          </mxGeometry>
        </mxCell>
        <mxCell id="7YrM8T80tlzXBzcbhjP2-225" value="" style="endArrow=diamondThin;endFill=0;endSize=24;html=1;rounded=0;fontSize=12;curved=1;startArrow=open;startFill=0;exitX=1;exitY=0.5;exitDx=0;exitDy=0;" parent="1" source="7YrM8T80tlzXBzcbhjP2-203" target="7YrM8T80tlzXBzcbhjP2-198" edge="1">
          <mxGeometry width="160" relative="1" as="geometry">
            <mxPoint x="-449" y="-1299" as="sourcePoint" />
            <mxPoint x="-265" y="-1304" as="targetPoint" />
          </mxGeometry>
        </mxCell>
        <mxCell id="7YrM8T80tlzXBzcbhjP2-226" value="" style="endArrow=open;endFill=1;endSize=12;html=1;rounded=0;fontSize=12;curved=1;exitX=0;exitY=0.5;exitDx=0;exitDy=0;" parent="1" source="7YrM8T80tlzXBzcbhjP2-194" target="7YrM8T80tlzXBzcbhjP2-198" edge="1">
          <mxGeometry width="160" relative="1" as="geometry">
            <mxPoint x="-84" y="-1304" as="sourcePoint" />
            <mxPoint x="-125" y="-1304" as="targetPoint" />
          </mxGeometry>
        </mxCell>
        <mxCell id="7YrM8T80tlzXBzcbhjP2-227" value="" style="endArrow=open;endSize=12;dashed=1;html=1;rounded=0;fontSize=12;curved=1;exitX=0;exitY=0.5;exitDx=0;exitDy=0;entryX=1;entryY=0;entryDx=0;entryDy=0;" parent="1" source="7YrM8T80tlzXBzcbhjP2-169" target="7YrM8T80tlzXBzcbhjP2-193" edge="1">
          <mxGeometry width="160" relative="1" as="geometry">
            <mxPoint x="-46" y="-1299" as="sourcePoint" />
            <mxPoint x="114" y="-1299" as="targetPoint" />
          </mxGeometry>
        </mxCell>
        <mxCell id="7YrM8T80tlzXBzcbhjP2-228" value="" style="endArrow=open;endSize=12;dashed=1;html=1;rounded=0;fontSize=12;curved=1;exitX=0;exitY=0;exitDx=0;exitDy=0;entryX=1;entryY=0.5;entryDx=0;entryDy=0;" parent="1" source="7YrM8T80tlzXBzcbhjP2-197" target="7YrM8T80tlzXBzcbhjP2-218" edge="1">
          <mxGeometry width="160" relative="1" as="geometry">
            <mxPoint x="-398" y="-1299" as="sourcePoint" />
            <mxPoint x="-536" y="-1441" as="targetPoint" />
          </mxGeometry>
        </mxCell>
        <mxCell id="7YrM8T80tlzXBzcbhjP2-229" value="" style="endArrow=open;endSize=12;dashed=1;html=1;rounded=0;fontSize=12;curved=1;entryX=0.5;entryY=0;entryDx=0;entryDy=0;" parent="1" source="7YrM8T80tlzXBzcbhjP2-218" target="7YrM8T80tlzXBzcbhjP2-213" edge="1">
          <mxGeometry width="160" relative="1" as="geometry">
            <mxPoint x="-606" y="-1428" as="sourcePoint" />
            <mxPoint x="-238" y="-1299" as="targetPoint" />
          </mxGeometry>
        </mxCell>
        <mxCell id="7YrM8T80tlzXBzcbhjP2-230" value="DrawVisitor" style="swimlane;fontStyle=0;childLayout=stackLayout;horizontal=1;startSize=26;fillColor=none;horizontalStack=0;resizeParent=1;resizeParentMax=0;resizeLast=0;collapsible=1;marginBottom=0;whiteSpace=wrap;html=1;" parent="1" vertex="1">
          <mxGeometry x="-499" y="-1124" width="140" height="130" as="geometry" />
        </mxCell>
        <mxCell id="7YrM8T80tlzXBzcbhjP2-231" value="+ visit(Scene)" style="text;strokeColor=none;fillColor=none;align=left;verticalAlign=top;spacingLeft=4;spacingRight=4;overflow=hidden;rotatable=0;points=[[0,0.5],[1,0.5]];portConstraint=eastwest;whiteSpace=wrap;html=1;" parent="7YrM8T80tlzXBzcbhjP2-230" vertex="1">
          <mxGeometry y="26" width="140" height="26" as="geometry" />
        </mxCell>
        <mxCell id="7YrM8T80tlzXBzcbhjP2-232" value="+ visit(SceneGroup)" style="text;strokeColor=none;fillColor=none;align=left;verticalAlign=top;spacingLeft=4;spacingRight=4;overflow=hidden;rotatable=0;points=[[0,0.5],[1,0.5]];portConstraint=eastwest;whiteSpace=wrap;html=1;" parent="7YrM8T80tlzXBzcbhjP2-230" vertex="1">
          <mxGeometry y="52" width="140" height="26" as="geometry" />
        </mxCell>
        <mxCell id="7YrM8T80tlzXBzcbhjP2-233" value="+ visit(SceletonModel)" style="text;strokeColor=none;fillColor=none;align=left;verticalAlign=top;spacingLeft=4;spacingRight=4;overflow=hidden;rotatable=0;points=[[0,0.5],[1,0.5]];portConstraint=eastwest;whiteSpace=wrap;html=1;" parent="7YrM8T80tlzXBzcbhjP2-230" vertex="1">
          <mxGeometry y="78" width="140" height="26" as="geometry" />
        </mxCell>
        <mxCell id="7YrM8T80tlzXBzcbhjP2-234" value="+ visit(BaseCamera)" style="text;strokeColor=none;fillColor=none;align=left;verticalAlign=top;spacingLeft=4;spacingRight=4;overflow=hidden;rotatable=0;points=[[0,0.5],[1,0.5]];portConstraint=eastwest;whiteSpace=wrap;html=1;" parent="7YrM8T80tlzXBzcbhjP2-230" vertex="1">
          <mxGeometry y="104" width="140" height="26" as="geometry" />
        </mxCell>
        <mxCell id="7YrM8T80tlzXBzcbhjP2-236" value="" style="endArrow=diamondThin;endFill=0;endSize=24;html=1;rounded=0;fontSize=12;curved=1;startArrow=open;startFill=0;exitX=1;exitY=0.5;exitDx=0;exitDy=0;entryX=0.471;entryY=0.952;entryDx=0;entryDy=0;entryPerimeter=0;" parent="1" source="7YrM8T80tlzXBzcbhjP2-231" target="Be2TWUhUQRMpWD8doCn--3" edge="1">
          <mxGeometry width="160" relative="1" as="geometry">
            <mxPoint x="-201" y="-1176" as="sourcePoint" />
            <mxPoint x="-204.7351598173516" y="-1291" as="targetPoint" />
          </mxGeometry>
        </mxCell>
        <mxCell id="7YrM8T80tlzXBzcbhjP2-237" value="BaseVisitor" style="swimlane;fontStyle=0;childLayout=stackLayout;horizontal=1;startSize=26;fillColor=none;horizontalStack=0;resizeParent=1;resizeParentMax=0;resizeLast=0;collapsible=1;marginBottom=0;whiteSpace=wrap;html=1;" parent="1" vertex="1">
          <mxGeometry x="-676" y="-1124" width="140" height="130" as="geometry" />
        </mxCell>
        <mxCell id="7YrM8T80tlzXBzcbhjP2-238" value="+ visit(Scene)" style="text;strokeColor=none;fillColor=none;align=left;verticalAlign=top;spacingLeft=4;spacingRight=4;overflow=hidden;rotatable=0;points=[[0,0.5],[1,0.5]];portConstraint=eastwest;whiteSpace=wrap;html=1;" parent="7YrM8T80tlzXBzcbhjP2-237" vertex="1">
          <mxGeometry y="26" width="140" height="26" as="geometry" />
        </mxCell>
        <mxCell id="7YrM8T80tlzXBzcbhjP2-239" value="+ visit(SceneGroup)" style="text;strokeColor=none;fillColor=none;align=left;verticalAlign=top;spacingLeft=4;spacingRight=4;overflow=hidden;rotatable=0;points=[[0,0.5],[1,0.5]];portConstraint=eastwest;whiteSpace=wrap;html=1;" parent="7YrM8T80tlzXBzcbhjP2-237" vertex="1">
          <mxGeometry y="52" width="140" height="26" as="geometry" />
        </mxCell>
        <mxCell id="7YrM8T80tlzXBzcbhjP2-240" value="+ visit(SceletonModel)" style="text;strokeColor=none;fillColor=none;align=left;verticalAlign=top;spacingLeft=4;spacingRight=4;overflow=hidden;rotatable=0;points=[[0,0.5],[1,0.5]];portConstraint=eastwest;whiteSpace=wrap;html=1;" parent="7YrM8T80tlzXBzcbhjP2-237" vertex="1">
          <mxGeometry y="78" width="140" height="26" as="geometry" />
        </mxCell>
        <mxCell id="7YrM8T80tlzXBzcbhjP2-241" value="+ visit(BaseCamera)" style="text;strokeColor=none;fillColor=none;align=left;verticalAlign=top;spacingLeft=4;spacingRight=4;overflow=hidden;rotatable=0;points=[[0,0.5],[1,0.5]];portConstraint=eastwest;whiteSpace=wrap;html=1;" parent="7YrM8T80tlzXBzcbhjP2-237" vertex="1">
          <mxGeometry y="104" width="140" height="26" as="geometry" />
        </mxCell>
        <mxCell id="7YrM8T80tlzXBzcbhjP2-244" value="" style="endArrow=block;endSize=16;endFill=0;html=1;rounded=0;fontSize=12;curved=1;exitX=0;exitY=0.5;exitDx=0;exitDy=0;entryX=1;entryY=0.5;entryDx=0;entryDy=0;" parent="1" source="7YrM8T80tlzXBzcbhjP2-233" target="7YrM8T80tlzXBzcbhjP2-240" edge="1">
          <mxGeometry width="160" relative="1" as="geometry">
            <mxPoint x="-447" y="-948" as="sourcePoint" />
            <mxPoint x="-287" y="-948" as="targetPoint" />
          </mxGeometry>
        </mxCell>
        <mxCell id="7YrM8T80tlzXBzcbhjP2-245" value="TransformManagerCreator" style="swimlane;fontStyle=0;childLayout=stackLayout;horizontal=1;startSize=26;fillColor=none;horizontalStack=0;resizeParent=1;resizeParentMax=0;resizeLast=0;collapsible=1;marginBottom=0;whiteSpace=wrap;html=1;" parent="1" vertex="1">
          <mxGeometry x="-145" y="-1154" width="151" height="52" as="geometry" />
        </mxCell>
        <mxCell id="7YrM8T80tlzXBzcbhjP2-246" value="+ get()" style="text;strokeColor=none;fillColor=none;align=left;verticalAlign=top;spacingLeft=4;spacingRight=4;overflow=hidden;rotatable=0;points=[[0,0.5],[1,0.5]];portConstraint=eastwest;whiteSpace=wrap;html=1;" parent="7YrM8T80tlzXBzcbhjP2-245" vertex="1">
          <mxGeometry y="26" width="151" height="26" as="geometry" />
        </mxCell>
        <mxCell id="7YrM8T80tlzXBzcbhjP2-249" value="TransformManager" style="swimlane;fontStyle=0;childLayout=stackLayout;horizontal=1;startSize=26;fillColor=none;horizontalStack=0;resizeParent=1;resizeParentMax=0;resizeLast=0;collapsible=1;marginBottom=0;whiteSpace=wrap;html=1;" parent="1" vertex="1">
          <mxGeometry x="-139.5" y="-1075" width="140" height="104" as="geometry" />
        </mxCell>
        <mxCell id="7YrM8T80tlzXBzcbhjP2-250" value="+ move()" style="text;strokeColor=none;fillColor=none;align=left;verticalAlign=top;spacingLeft=4;spacingRight=4;overflow=hidden;rotatable=0;points=[[0,0.5],[1,0.5]];portConstraint=eastwest;whiteSpace=wrap;html=1;" parent="7YrM8T80tlzXBzcbhjP2-249" vertex="1">
          <mxGeometry y="26" width="140" height="26" as="geometry" />
        </mxCell>
        <mxCell id="7YrM8T80tlzXBzcbhjP2-251" value="+ rotate()" style="text;strokeColor=none;fillColor=none;align=left;verticalAlign=top;spacingLeft=4;spacingRight=4;overflow=hidden;rotatable=0;points=[[0,0.5],[1,0.5]];portConstraint=eastwest;whiteSpace=wrap;html=1;" parent="7YrM8T80tlzXBzcbhjP2-249" vertex="1">
          <mxGeometry y="52" width="140" height="26" as="geometry" />
        </mxCell>
        <mxCell id="7YrM8T80tlzXBzcbhjP2-252" value="+ scale()" style="text;strokeColor=none;fillColor=none;align=left;verticalAlign=top;spacingLeft=4;spacingRight=4;overflow=hidden;rotatable=0;points=[[0,0.5],[1,0.5]];portConstraint=eastwest;whiteSpace=wrap;html=1;" parent="7YrM8T80tlzXBzcbhjP2-249" vertex="1">
          <mxGeometry y="78" width="140" height="26" as="geometry" />
        </mxCell>
        <mxCell id="7YrM8T80tlzXBzcbhjP2-253" value="" style="endArrow=open;endSize=12;dashed=1;html=1;rounded=0;fontSize=12;curved=1;entryX=1;entryY=0;entryDx=0;entryDy=0;" parent="1" source="7YrM8T80tlzXBzcbhjP2-169" target="7YrM8T80tlzXBzcbhjP2-245" edge="1">
          <mxGeometry width="160" relative="1" as="geometry">
            <mxPoint x="-9" y="-1182" as="sourcePoint" />
            <mxPoint x="151" y="-1182" as="targetPoint" />
          </mxGeometry>
        </mxCell>
        <mxCell id="7YrM8T80tlzXBzcbhjP2-254" value="" style="endArrow=open;endFill=1;endSize=12;html=1;rounded=0;fontSize=12;curved=1;entryX=0.5;entryY=0;entryDx=0;entryDy=0;" parent="1" source="7YrM8T80tlzXBzcbhjP2-246" target="7YrM8T80tlzXBzcbhjP2-249" edge="1">
          <mxGeometry width="160" relative="1" as="geometry">
            <mxPoint x="-9" y="-1182" as="sourcePoint" />
            <mxPoint x="151" y="-1182" as="targetPoint" />
          </mxGeometry>
        </mxCell>
        <mxCell id="7YrM8T80tlzXBzcbhjP2-255" value="Transformation" style="swimlane;fontStyle=0;childLayout=stackLayout;horizontal=1;startSize=26;fillColor=none;horizontalStack=0;resizeParent=1;resizeParentMax=0;resizeLast=0;collapsible=1;marginBottom=0;whiteSpace=wrap;html=1;" parent="1" vertex="1">
          <mxGeometry x="-140" y="-939" width="140" height="52" as="geometry" />
        </mxCell>
        <mxCell id="7YrM8T80tlzXBzcbhjP2-259" value="MoveData" style="swimlane;fontStyle=0;childLayout=stackLayout;horizontal=1;startSize=26;fillColor=none;horizontalStack=0;resizeParent=1;resizeParentMax=0;resizeLast=0;collapsible=1;marginBottom=0;whiteSpace=wrap;html=1;" parent="1" vertex="1">
          <mxGeometry x="-342" y="-847" width="140" height="52" as="geometry" />
        </mxCell>
        <mxCell id="7YrM8T80tlzXBzcbhjP2-263" value="RotateData" style="swimlane;fontStyle=0;childLayout=stackLayout;horizontal=1;startSize=26;fillColor=none;horizontalStack=0;resizeParent=1;resizeParentMax=0;resizeLast=0;collapsible=1;marginBottom=0;whiteSpace=wrap;html=1;" parent="1" vertex="1">
          <mxGeometry x="-173" y="-847" width="140" height="52" as="geometry" />
        </mxCell>
        <mxCell id="7YrM8T80tlzXBzcbhjP2-267" value="ScaleData" style="swimlane;fontStyle=0;childLayout=stackLayout;horizontal=1;startSize=26;fillColor=none;horizontalStack=0;resizeParent=1;resizeParentMax=0;resizeLast=0;collapsible=1;marginBottom=0;whiteSpace=wrap;html=1;" parent="1" vertex="1">
          <mxGeometry x="-2" y="-847" width="140" height="52" as="geometry" />
        </mxCell>
        <mxCell id="7YrM8T80tlzXBzcbhjP2-271" value="" style="endArrow=diamondThin;endFill=0;endSize=24;html=1;rounded=0;fontSize=12;curved=1;startArrow=open;startFill=0;entryX=0;entryY=0.5;entryDx=0;entryDy=0;exitX=1;exitY=0.5;exitDx=0;exitDy=0;" parent="1" source="7YrM8T80tlzXBzcbhjP2-255" target="7YrM8T80tlzXBzcbhjP2-102" edge="1">
          <mxGeometry width="160" relative="1" as="geometry">
            <mxPoint x="49" y="-869" as="sourcePoint" />
            <mxPoint x="9" y="-906" as="targetPoint" />
          </mxGeometry>
        </mxCell>
        <mxCell id="7YrM8T80tlzXBzcbhjP2-272" value="" style="endArrow=open;endSize=12;dashed=1;html=1;rounded=0;fontSize=12;curved=1;entryX=0.5;entryY=0;entryDx=0;entryDy=0;exitX=0.5;exitY=1;exitDx=0;exitDy=0;" parent="1" source="7YrM8T80tlzXBzcbhjP2-255" target="7YrM8T80tlzXBzcbhjP2-267" edge="1">
          <mxGeometry width="160" relative="1" as="geometry">
            <mxPoint x="-151" y="-906" as="sourcePoint" />
            <mxPoint x="9" y="-906" as="targetPoint" />
          </mxGeometry>
        </mxCell>
        <mxCell id="7YrM8T80tlzXBzcbhjP2-273" value="" style="endArrow=open;endSize=12;dashed=1;html=1;rounded=0;fontSize=12;curved=1;entryX=0.5;entryY=0;entryDx=0;entryDy=0;exitX=0.5;exitY=1;exitDx=0;exitDy=0;" parent="1" source="7YrM8T80tlzXBzcbhjP2-255" target="7YrM8T80tlzXBzcbhjP2-263" edge="1">
          <mxGeometry width="160" relative="1" as="geometry">
            <mxPoint x="-151" y="-906" as="sourcePoint" />
            <mxPoint x="9" y="-906" as="targetPoint" />
          </mxGeometry>
        </mxCell>
        <mxCell id="7YrM8T80tlzXBzcbhjP2-274" value="" style="endArrow=open;endSize=12;dashed=1;html=1;rounded=0;fontSize=12;curved=1;entryX=0.5;entryY=0;entryDx=0;entryDy=0;exitX=0.5;exitY=1;exitDx=0;exitDy=0;" parent="1" source="7YrM8T80tlzXBzcbhjP2-255" target="7YrM8T80tlzXBzcbhjP2-259" edge="1">
          <mxGeometry width="160" relative="1" as="geometry">
            <mxPoint x="-151" y="-906" as="sourcePoint" />
            <mxPoint x="9" y="-906" as="targetPoint" />
          </mxGeometry>
        </mxCell>
        <mxCell id="7YrM8T80tlzXBzcbhjP2-275" value="" style="endArrow=open;endFill=1;endSize=12;html=1;rounded=0;fontSize=12;curved=1;entryX=0.5;entryY=0;entryDx=0;entryDy=0;" parent="1" source="7YrM8T80tlzXBzcbhjP2-252" target="7YrM8T80tlzXBzcbhjP2-255" edge="1">
          <mxGeometry width="160" relative="1" as="geometry">
            <mxPoint x="-55" y="-906" as="sourcePoint" />
            <mxPoint x="105" y="-906" as="targetPoint" />
          </mxGeometry>
        </mxCell>
        <mxCell id="7YrM8T80tlzXBzcbhjP2-276" value="LoadManagerCreator" style="swimlane;fontStyle=0;childLayout=stackLayout;horizontal=1;startSize=26;fillColor=none;horizontalStack=0;resizeParent=1;resizeParentMax=0;resizeLast=0;collapsible=1;marginBottom=0;whiteSpace=wrap;html=1;" parent="1" vertex="1">
          <mxGeometry x="684" y="-1421" width="140" height="52" as="geometry" />
        </mxCell>
        <mxCell id="7YrM8T80tlzXBzcbhjP2-277" value="+ get()" style="text;strokeColor=none;fillColor=none;align=left;verticalAlign=top;spacingLeft=4;spacingRight=4;overflow=hidden;rotatable=0;points=[[0,0.5],[1,0.5]];portConstraint=eastwest;whiteSpace=wrap;html=1;" parent="7YrM8T80tlzXBzcbhjP2-276" vertex="1">
          <mxGeometry y="26" width="140" height="26" as="geometry" />
        </mxCell>
        <mxCell id="7YrM8T80tlzXBzcbhjP2-281" value="LoadManager" style="swimlane;fontStyle=0;childLayout=stackLayout;horizontal=1;startSize=26;fillColor=none;horizontalStack=0;resizeParent=1;resizeParentMax=0;resizeLast=0;collapsible=1;marginBottom=0;whiteSpace=wrap;html=1;" parent="1" vertex="1">
          <mxGeometry x="865" y="-1421" width="140" height="52" as="geometry" />
        </mxCell>
        <mxCell id="7YrM8T80tlzXBzcbhjP2-282" value="+ loadSceletonModel()" style="text;strokeColor=none;fillColor=none;align=left;verticalAlign=top;spacingLeft=4;spacingRight=4;overflow=hidden;rotatable=0;points=[[0,0.5],[1,0.5]];portConstraint=eastwest;whiteSpace=wrap;html=1;" parent="7YrM8T80tlzXBzcbhjP2-281" vertex="1">
          <mxGeometry y="26" width="140" height="26" as="geometry" />
        </mxCell>
        <mxCell id="7YrM8T80tlzXBzcbhjP2-285" value="" style="endArrow=open;endFill=1;endSize=12;html=1;rounded=0;fontSize=12;curved=1;entryX=0;entryY=0.5;entryDx=0;entryDy=0;" parent="1" source="7YrM8T80tlzXBzcbhjP2-277" target="7YrM8T80tlzXBzcbhjP2-282" edge="1">
          <mxGeometry width="160" relative="1" as="geometry">
            <mxPoint x="787" y="-1382" as="sourcePoint" />
            <mxPoint x="751" y="-1384" as="targetPoint" />
          </mxGeometry>
        </mxCell>
        <mxCell id="7YrM8T80tlzXBzcbhjP2-286" value="" style="endArrow=open;endSize=12;dashed=1;html=1;rounded=0;fontSize=12;curved=1;entryX=0;entryY=0.5;entryDx=0;entryDy=0;exitX=1;exitY=0.25;exitDx=0;exitDy=0;" parent="1" source="7YrM8T80tlzXBzcbhjP2-168" target="7YrM8T80tlzXBzcbhjP2-276" edge="1">
          <mxGeometry width="160" relative="1" as="geometry">
            <mxPoint x="478" y="-1386" as="sourcePoint" />
            <mxPoint x="638" y="-1386" as="targetPoint" />
            <Array as="points">
              <mxPoint x="529" y="-1495" />
            </Array>
          </mxGeometry>
        </mxCell>
        <mxCell id="7YrM8T80tlzXBzcbhjP2-287" value="" style="endArrow=open;endSize=12;dashed=1;html=1;rounded=0;fontSize=12;curved=1;entryX=0;entryY=0;entryDx=0;entryDy=0;" parent="1" source="7YrM8T80tlzXBzcbhjP2-169" target="7YrM8T80tlzXBzcbhjP2-151" edge="1">
          <mxGeometry width="160" relative="1" as="geometry">
            <mxPoint x="465" y="-1337" as="sourcePoint" />
            <mxPoint x="625" y="-1337" as="targetPoint" />
            <Array as="points">
              <mxPoint x="554" y="-1443" />
              <mxPoint x="641" y="-1247" />
            </Array>
          </mxGeometry>
        </mxCell>
        <mxCell id="7YrM8T80tlzXBzcbhjP2-288" value="BuilderSolution" style="swimlane;fontStyle=0;childLayout=stackLayout;horizontal=1;startSize=26;fillColor=none;horizontalStack=0;resizeParent=1;resizeParentMax=0;resizeLast=0;collapsible=1;marginBottom=0;whiteSpace=wrap;html=1;" parent="1" vertex="1">
          <mxGeometry x="1035" y="-1421" width="140" height="52" as="geometry" />
        </mxCell>
        <mxCell id="7YrM8T80tlzXBzcbhjP2-289" value="+ create()" style="text;strokeColor=none;fillColor=none;align=left;verticalAlign=top;spacingLeft=4;spacingRight=4;overflow=hidden;rotatable=0;points=[[0,0.5],[1,0.5]];portConstraint=eastwest;whiteSpace=wrap;html=1;" parent="7YrM8T80tlzXBzcbhjP2-288" vertex="1">
          <mxGeometry y="26" width="140" height="26" as="geometry" />
        </mxCell>
        <mxCell id="7YrM8T80tlzXBzcbhjP2-292" value="" style="endArrow=open;endFill=1;endSize=12;html=1;rounded=0;fontSize=12;curved=1;entryX=0;entryY=0.75;entryDx=0;entryDy=0;" parent="1" source="7YrM8T80tlzXBzcbhjP2-282" target="7YrM8T80tlzXBzcbhjP2-288" edge="1">
          <mxGeometry width="160" relative="1" as="geometry">
            <mxPoint x="852" y="-1326" as="sourcePoint" />
            <mxPoint x="1012" y="-1326" as="targetPoint" />
          </mxGeometry>
        </mxCell>
        <mxCell id="7YrM8T80tlzXBzcbhjP2-293" value="SceletonModelBuilderFactory" style="swimlane;fontStyle=0;childLayout=stackLayout;horizontal=1;startSize=26;fillColor=none;horizontalStack=0;resizeParent=1;resizeParentMax=0;resizeLast=0;collapsible=1;marginBottom=0;whiteSpace=wrap;html=1;" parent="1" vertex="1">
          <mxGeometry x="1018" y="-1336" width="174" height="52" as="geometry" />
        </mxCell>
        <mxCell id="7YrM8T80tlzXBzcbhjP2-294" value="+ create(type)" style="text;strokeColor=none;fillColor=none;align=left;verticalAlign=top;spacingLeft=4;spacingRight=4;overflow=hidden;rotatable=0;points=[[0,0.5],[1,0.5]];portConstraint=eastwest;whiteSpace=wrap;html=1;" parent="7YrM8T80tlzXBzcbhjP2-293" vertex="1">
          <mxGeometry y="26" width="174" height="26" as="geometry" />
        </mxCell>
        <mxCell id="7YrM8T80tlzXBzcbhjP2-297" value="" style="endArrow=open;endSize=12;dashed=1;html=1;rounded=0;fontSize=12;curved=1;entryX=0.5;entryY=0;entryDx=0;entryDy=0;" parent="1" source="7YrM8T80tlzXBzcbhjP2-289" target="7YrM8T80tlzXBzcbhjP2-293" edge="1">
          <mxGeometry width="160" relative="1" as="geometry">
            <mxPoint x="960" y="-1408" as="sourcePoint" />
            <mxPoint x="1120" y="-1408" as="targetPoint" />
          </mxGeometry>
        </mxCell>
        <mxCell id="7YrM8T80tlzXBzcbhjP2-298" value="ModelDirector" style="swimlane;fontStyle=0;childLayout=stackLayout;horizontal=1;startSize=26;fillColor=none;horizontalStack=0;resizeParent=1;resizeParentMax=0;resizeLast=0;collapsible=1;marginBottom=0;whiteSpace=wrap;html=1;" parent="1" vertex="1">
          <mxGeometry x="865" y="-1519" width="140" height="52" as="geometry" />
        </mxCell>
        <mxCell id="7YrM8T80tlzXBzcbhjP2-299" value="+ create()" style="text;strokeColor=none;fillColor=none;align=left;verticalAlign=top;spacingLeft=4;spacingRight=4;overflow=hidden;rotatable=0;points=[[0,0.5],[1,0.5]];portConstraint=eastwest;whiteSpace=wrap;html=1;" parent="7YrM8T80tlzXBzcbhjP2-298" vertex="1">
          <mxGeometry y="26" width="140" height="26" as="geometry" />
        </mxCell>
        <mxCell id="7YrM8T80tlzXBzcbhjP2-302" value="" style="endArrow=diamondThin;endFill=0;endSize=24;html=1;rounded=0;fontSize=12;curved=1;startArrow=open;startFill=0;" parent="1" source="7YrM8T80tlzXBzcbhjP2-299" target="7YrM8T80tlzXBzcbhjP2-281" edge="1">
          <mxGeometry width="160" relative="1" as="geometry">
            <mxPoint x="960" y="-1408" as="sourcePoint" />
            <mxPoint x="1120" y="-1408" as="targetPoint" />
          </mxGeometry>
        </mxCell>
        <mxCell id="7YrM8T80tlzXBzcbhjP2-303" value="SceletonModelDirector" style="swimlane;fontStyle=0;childLayout=stackLayout;horizontal=1;startSize=26;fillColor=none;horizontalStack=0;resizeParent=1;resizeParentMax=0;resizeLast=0;collapsible=1;marginBottom=0;whiteSpace=wrap;html=1;" parent="1" vertex="1">
          <mxGeometry x="1035" y="-1519" width="140" height="52" as="geometry" />
        </mxCell>
        <mxCell id="7YrM8T80tlzXBzcbhjP2-304" value="+ create()" style="text;strokeColor=none;fillColor=none;align=left;verticalAlign=top;spacingLeft=4;spacingRight=4;overflow=hidden;rotatable=0;points=[[0,0.5],[1,0.5]];portConstraint=eastwest;whiteSpace=wrap;html=1;" parent="7YrM8T80tlzXBzcbhjP2-303" vertex="1">
          <mxGeometry y="26" width="140" height="26" as="geometry" />
        </mxCell>
        <mxCell id="7YrM8T80tlzXBzcbhjP2-307" value="" style="endArrow=block;endSize=16;endFill=0;html=1;rounded=0;fontSize=12;curved=1;entryX=1;entryY=0.5;entryDx=0;entryDy=0;" parent="1" source="7YrM8T80tlzXBzcbhjP2-304" target="7YrM8T80tlzXBzcbhjP2-299" edge="1">
          <mxGeometry width="160" relative="1" as="geometry">
            <mxPoint x="960" y="-1360" as="sourcePoint" />
            <mxPoint x="1120" y="-1360" as="targetPoint" />
          </mxGeometry>
        </mxCell>
        <mxCell id="7YrM8T80tlzXBzcbhjP2-308" value="SceletonModelBuilder" style="swimlane;fontStyle=0;childLayout=stackLayout;horizontal=1;startSize=26;fillColor=none;horizontalStack=0;resizeParent=1;resizeParentMax=0;resizeLast=0;collapsible=1;marginBottom=0;whiteSpace=wrap;html=1;" parent="1" vertex="1">
          <mxGeometry x="1256" y="-1336" width="140" height="104" as="geometry" />
        </mxCell>
        <mxCell id="7YrM8T80tlzXBzcbhjP2-309" value="+ buildVertex()" style="text;strokeColor=none;fillColor=none;align=left;verticalAlign=top;spacingLeft=4;spacingRight=4;overflow=hidden;rotatable=0;points=[[0,0.5],[1,0.5]];portConstraint=eastwest;whiteSpace=wrap;html=1;" parent="7YrM8T80tlzXBzcbhjP2-308" vertex="1">
          <mxGeometry y="26" width="140" height="26" as="geometry" />
        </mxCell>
        <mxCell id="7YrM8T80tlzXBzcbhjP2-310" value="+ buildEdge()" style="text;strokeColor=none;fillColor=none;align=left;verticalAlign=top;spacingLeft=4;spacingRight=4;overflow=hidden;rotatable=0;points=[[0,0.5],[1,0.5]];portConstraint=eastwest;whiteSpace=wrap;html=1;" parent="7YrM8T80tlzXBzcbhjP2-308" vertex="1">
          <mxGeometry y="52" width="140" height="26" as="geometry" />
        </mxCell>
        <mxCell id="7YrM8T80tlzXBzcbhjP2-311" value="+ get()" style="text;strokeColor=none;fillColor=none;align=left;verticalAlign=top;spacingLeft=4;spacingRight=4;overflow=hidden;rotatable=0;points=[[0,0.5],[1,0.5]];portConstraint=eastwest;whiteSpace=wrap;html=1;" parent="7YrM8T80tlzXBzcbhjP2-308" vertex="1">
          <mxGeometry y="78" width="140" height="26" as="geometry" />
        </mxCell>
        <mxCell id="7YrM8T80tlzXBzcbhjP2-313" value="" style="endArrow=open;endFill=1;endSize=12;html=1;rounded=0;fontSize=12;curved=1;entryX=0;entryY=0.5;entryDx=0;entryDy=0;exitX=1;exitY=0.5;exitDx=0;exitDy=0;" parent="1" source="7YrM8T80tlzXBzcbhjP2-294" target="7YrM8T80tlzXBzcbhjP2-309" edge="1">
          <mxGeometry width="160" relative="1" as="geometry">
            <mxPoint x="1125" y="-1254" as="sourcePoint" />
            <mxPoint x="1285" y="-1254" as="targetPoint" />
          </mxGeometry>
        </mxCell>
        <mxCell id="7YrM8T80tlzXBzcbhjP2-314" value="" style="endArrow=diamondThin;endFill=0;endSize=24;html=1;rounded=0;fontSize=12;curved=1;startArrow=open;startFill=0;entryX=1;entryY=0.5;entryDx=0;entryDy=0;exitX=0;exitY=0.5;exitDx=0;exitDy=0;" parent="1" source="7YrM8T80tlzXBzcbhjP2-329" target="7YrM8T80tlzXBzcbhjP2-304" edge="1">
          <mxGeometry width="160" relative="1" as="geometry">
            <mxPoint x="1125" y="-1341" as="sourcePoint" />
            <mxPoint x="1285" y="-1341" as="targetPoint" />
          </mxGeometry>
        </mxCell>
        <mxCell id="7YrM8T80tlzXBzcbhjP2-315" value="VertexEdgeSceletonModelBuilder" style="swimlane;fontStyle=0;childLayout=stackLayout;horizontal=1;startSize=26;fillColor=none;horizontalStack=0;resizeParent=1;resizeParentMax=0;resizeLast=0;collapsible=1;marginBottom=0;whiteSpace=wrap;html=1;" parent="1" vertex="1">
          <mxGeometry x="1444" y="-1336" width="195" height="104" as="geometry" />
        </mxCell>
        <mxCell id="7YrM8T80tlzXBzcbhjP2-316" value="+ build()" style="text;strokeColor=none;fillColor=none;align=left;verticalAlign=top;spacingLeft=4;spacingRight=4;overflow=hidden;rotatable=0;points=[[0,0.5],[1,0.5]];portConstraint=eastwest;whiteSpace=wrap;html=1;" parent="7YrM8T80tlzXBzcbhjP2-315" vertex="1">
          <mxGeometry y="26" width="195" height="26" as="geometry" />
        </mxCell>
        <mxCell id="7YrM8T80tlzXBzcbhjP2-317" value="+ buildVertex()" style="text;strokeColor=none;fillColor=none;align=left;verticalAlign=top;spacingLeft=4;spacingRight=4;overflow=hidden;rotatable=0;points=[[0,0.5],[1,0.5]];portConstraint=eastwest;whiteSpace=wrap;html=1;" parent="7YrM8T80tlzXBzcbhjP2-315" vertex="1">
          <mxGeometry y="52" width="195" height="26" as="geometry" />
        </mxCell>
        <mxCell id="7YrM8T80tlzXBzcbhjP2-318" value="+ buildEdge()" style="text;strokeColor=none;fillColor=none;align=left;verticalAlign=top;spacingLeft=4;spacingRight=4;overflow=hidden;rotatable=0;points=[[0,0.5],[1,0.5]];portConstraint=eastwest;whiteSpace=wrap;html=1;" parent="7YrM8T80tlzXBzcbhjP2-315" vertex="1">
          <mxGeometry y="78" width="195" height="26" as="geometry" />
        </mxCell>
        <mxCell id="7YrM8T80tlzXBzcbhjP2-320" value="AdjacencyListSceletonModelBuilder" style="swimlane;fontStyle=0;childLayout=stackLayout;horizontal=1;startSize=26;fillColor=none;horizontalStack=0;resizeParent=1;resizeParentMax=0;resizeLast=0;collapsible=1;marginBottom=0;whiteSpace=wrap;html=1;" parent="1" vertex="1">
          <mxGeometry x="1446" y="-1184" width="194" height="104" as="geometry" />
        </mxCell>
        <mxCell id="7YrM8T80tlzXBzcbhjP2-321" value="+ build()" style="text;strokeColor=none;fillColor=none;align=left;verticalAlign=top;spacingLeft=4;spacingRight=4;overflow=hidden;rotatable=0;points=[[0,0.5],[1,0.5]];portConstraint=eastwest;whiteSpace=wrap;html=1;" parent="7YrM8T80tlzXBzcbhjP2-320" vertex="1">
          <mxGeometry y="26" width="194" height="26" as="geometry" />
        </mxCell>
        <mxCell id="7YrM8T80tlzXBzcbhjP2-322" value="+ buildVertex()" style="text;strokeColor=none;fillColor=none;align=left;verticalAlign=top;spacingLeft=4;spacingRight=4;overflow=hidden;rotatable=0;points=[[0,0.5],[1,0.5]];portConstraint=eastwest;whiteSpace=wrap;html=1;" parent="7YrM8T80tlzXBzcbhjP2-320" vertex="1">
          <mxGeometry y="52" width="194" height="26" as="geometry" />
        </mxCell>
        <mxCell id="7YrM8T80tlzXBzcbhjP2-323" value="+ buildEdge()" style="text;strokeColor=none;fillColor=none;align=left;verticalAlign=top;spacingLeft=4;spacingRight=4;overflow=hidden;rotatable=0;points=[[0,0.5],[1,0.5]];portConstraint=eastwest;whiteSpace=wrap;html=1;" parent="7YrM8T80tlzXBzcbhjP2-320" vertex="1">
          <mxGeometry y="78" width="194" height="26" as="geometry" />
        </mxCell>
        <mxCell id="7YrM8T80tlzXBzcbhjP2-325" value="" style="endArrow=block;endSize=16;endFill=0;html=1;rounded=0;fontSize=12;curved=1;entryX=1;entryY=0.5;entryDx=0;entryDy=0;" parent="1" source="7YrM8T80tlzXBzcbhjP2-317" target="7YrM8T80tlzXBzcbhjP2-310" edge="1">
          <mxGeometry width="160" relative="1" as="geometry">
            <mxPoint x="1373" y="-1244" as="sourcePoint" />
            <mxPoint x="1533" y="-1244" as="targetPoint" />
          </mxGeometry>
        </mxCell>
        <mxCell id="7YrM8T80tlzXBzcbhjP2-326" value="" style="endArrow=block;endSize=16;endFill=0;html=1;rounded=0;fontSize=12;curved=1;exitX=0;exitY=0;exitDx=0;exitDy=0;" parent="1" source="7YrM8T80tlzXBzcbhjP2-320" target="7YrM8T80tlzXBzcbhjP2-311" edge="1">
          <mxGeometry width="160" relative="1" as="geometry">
            <mxPoint x="1373" y="-1244" as="sourcePoint" />
            <mxPoint x="1336" y="-1155" as="targetPoint" />
          </mxGeometry>
        </mxCell>
        <mxCell id="7YrM8T80tlzXBzcbhjP2-327" value="ModelBuilder" style="swimlane;fontStyle=0;childLayout=stackLayout;horizontal=1;startSize=26;fillColor=none;horizontalStack=0;resizeParent=1;resizeParentMax=0;resizeLast=0;collapsible=1;marginBottom=0;whiteSpace=wrap;html=1;" parent="1" vertex="1">
          <mxGeometry x="1256" y="-1653" width="140" height="104" as="geometry" />
        </mxCell>
        <mxCell id="7YrM8T80tlzXBzcbhjP2-328" value="+ buildVertex()" style="text;strokeColor=none;fillColor=none;align=left;verticalAlign=top;spacingLeft=4;spacingRight=4;overflow=hidden;rotatable=0;points=[[0,0.5],[1,0.5]];portConstraint=eastwest;whiteSpace=wrap;html=1;" parent="7YrM8T80tlzXBzcbhjP2-327" vertex="1">
          <mxGeometry y="26" width="140" height="26" as="geometry" />
        </mxCell>
        <mxCell id="7YrM8T80tlzXBzcbhjP2-329" value="+ buildEdge()" style="text;strokeColor=none;fillColor=none;align=left;verticalAlign=top;spacingLeft=4;spacingRight=4;overflow=hidden;rotatable=0;points=[[0,0.5],[1,0.5]];portConstraint=eastwest;whiteSpace=wrap;html=1;" parent="7YrM8T80tlzXBzcbhjP2-327" vertex="1">
          <mxGeometry y="52" width="140" height="26" as="geometry" />
        </mxCell>
        <mxCell id="7YrM8T80tlzXBzcbhjP2-330" value="+ get()" style="text;strokeColor=none;fillColor=none;align=left;verticalAlign=top;spacingLeft=4;spacingRight=4;overflow=hidden;rotatable=0;points=[[0,0.5],[1,0.5]];portConstraint=eastwest;whiteSpace=wrap;html=1;" parent="7YrM8T80tlzXBzcbhjP2-327" vertex="1">
          <mxGeometry y="78" width="140" height="26" as="geometry" />
        </mxCell>
        <mxCell id="7YrM8T80tlzXBzcbhjP2-331" value="" style="endArrow=block;endSize=16;endFill=0;html=1;rounded=0;fontSize=12;curved=1;exitX=0.5;exitY=0;exitDx=0;exitDy=0;" parent="1" source="7YrM8T80tlzXBzcbhjP2-308" target="7YrM8T80tlzXBzcbhjP2-330" edge="1">
          <mxGeometry width="160" relative="1" as="geometry">
            <mxPoint x="1373" y="-1244" as="sourcePoint" />
            <mxPoint x="1533" y="-1244" as="targetPoint" />
          </mxGeometry>
        </mxCell>
        <mxCell id="7YrM8T80tlzXBzcbhjP2-332" value="ModelSource" style="swimlane;fontStyle=0;childLayout=stackLayout;horizontal=1;startSize=26;fillColor=none;horizontalStack=0;resizeParent=1;resizeParentMax=0;resizeLast=0;collapsible=1;marginBottom=0;whiteSpace=wrap;html=1;" parent="1" vertex="1">
          <mxGeometry x="1457" y="-1627" width="140" height="78" as="geometry" />
        </mxCell>
        <mxCell id="7YrM8T80tlzXBzcbhjP2-333" value="+ nextVertex()" style="text;strokeColor=none;fillColor=none;align=left;verticalAlign=top;spacingLeft=4;spacingRight=4;overflow=hidden;rotatable=0;points=[[0,0.5],[1,0.5]];portConstraint=eastwest;whiteSpace=wrap;html=1;" parent="7YrM8T80tlzXBzcbhjP2-332" vertex="1">
          <mxGeometry y="26" width="140" height="26" as="geometry" />
        </mxCell>
        <mxCell id="7YrM8T80tlzXBzcbhjP2-334" value="+ nextEdge()" style="text;strokeColor=none;fillColor=none;align=left;verticalAlign=top;spacingLeft=4;spacingRight=4;overflow=hidden;rotatable=0;points=[[0,0.5],[1,0.5]];portConstraint=eastwest;whiteSpace=wrap;html=1;" parent="7YrM8T80tlzXBzcbhjP2-332" vertex="1">
          <mxGeometry y="52" width="140" height="26" as="geometry" />
        </mxCell>
        <mxCell id="7YrM8T80tlzXBzcbhjP2-336" value="" style="endArrow=diamondThin;endFill=0;endSize=24;html=1;rounded=0;fontSize=12;curved=1;startArrow=open;startFill=0;exitX=0;exitY=0.5;exitDx=0;exitDy=0;entryX=1;entryY=0.5;entryDx=0;entryDy=0;" parent="1" source="7YrM8T80tlzXBzcbhjP2-333" target="7YrM8T80tlzXBzcbhjP2-329" edge="1">
          <mxGeometry width="160" relative="1" as="geometry">
            <mxPoint x="1293" y="-1479" as="sourcePoint" />
            <mxPoint x="1453" y="-1479" as="targetPoint" />
          </mxGeometry>
        </mxCell>
        <mxCell id="7YrM8T80tlzXBzcbhjP2-337" value="ModelSourceFactory" style="swimlane;fontStyle=0;childLayout=stackLayout;horizontal=1;startSize=26;fillColor=none;horizontalStack=0;resizeParent=1;resizeParentMax=0;resizeLast=0;collapsible=1;marginBottom=0;whiteSpace=wrap;html=1;" parent="1" vertex="1">
          <mxGeometry x="1457" y="-1519" width="140" height="52" as="geometry" />
        </mxCell>
        <mxCell id="7YrM8T80tlzXBzcbhjP2-338" value="+ create(type, filepath)" style="text;strokeColor=none;fillColor=none;align=left;verticalAlign=top;spacingLeft=4;spacingRight=4;overflow=hidden;rotatable=0;points=[[0,0.5],[1,0.5]];portConstraint=eastwest;whiteSpace=wrap;html=1;" parent="7YrM8T80tlzXBzcbhjP2-337" vertex="1">
          <mxGeometry y="26" width="140" height="26" as="geometry" />
        </mxCell>
        <mxCell id="7YrM8T80tlzXBzcbhjP2-341" value="" style="endArrow=open;endFill=1;endSize=12;html=1;rounded=0;fontSize=12;curved=1;exitX=0.5;exitY=0;exitDx=0;exitDy=0;" parent="1" source="7YrM8T80tlzXBzcbhjP2-337" target="7YrM8T80tlzXBzcbhjP2-334" edge="1">
          <mxGeometry width="160" relative="1" as="geometry">
            <mxPoint x="1227" y="-1458" as="sourcePoint" />
            <mxPoint x="1387" y="-1458" as="targetPoint" />
          </mxGeometry>
        </mxCell>
        <mxCell id="7YrM8T80tlzXBzcbhjP2-342" value="VertexEdgeSource" style="swimlane;fontStyle=0;childLayout=stackLayout;horizontal=1;startSize=26;fillColor=none;horizontalStack=0;resizeParent=1;resizeParentMax=0;resizeLast=0;collapsible=1;marginBottom=0;whiteSpace=wrap;html=1;" parent="1" vertex="1">
          <mxGeometry x="1691" y="-1658" width="140" height="78" as="geometry" />
        </mxCell>
        <mxCell id="7YrM8T80tlzXBzcbhjP2-343" value="+ nextVertex()" style="text;strokeColor=none;fillColor=none;align=left;verticalAlign=top;spacingLeft=4;spacingRight=4;overflow=hidden;rotatable=0;points=[[0,0.5],[1,0.5]];portConstraint=eastwest;whiteSpace=wrap;html=1;" parent="7YrM8T80tlzXBzcbhjP2-342" vertex="1">
          <mxGeometry y="26" width="140" height="26" as="geometry" />
        </mxCell>
        <mxCell id="7YrM8T80tlzXBzcbhjP2-344" value="+ nextEdge()" style="text;strokeColor=none;fillColor=none;align=left;verticalAlign=top;spacingLeft=4;spacingRight=4;overflow=hidden;rotatable=0;points=[[0,0.5],[1,0.5]];portConstraint=eastwest;whiteSpace=wrap;html=1;" parent="7YrM8T80tlzXBzcbhjP2-342" vertex="1">
          <mxGeometry y="52" width="140" height="26" as="geometry" />
        </mxCell>
        <mxCell id="7YrM8T80tlzXBzcbhjP2-346" value="" style="endArrow=block;endSize=16;endFill=0;html=1;rounded=0;fontSize=12;curved=1;exitX=0;exitY=0.5;exitDx=0;exitDy=0;" parent="1" source="7YrM8T80tlzXBzcbhjP2-343" target="7YrM8T80tlzXBzcbhjP2-333" edge="1">
          <mxGeometry width="160" relative="1" as="geometry">
            <mxPoint x="1509" y="-1458" as="sourcePoint" />
            <mxPoint x="1656" y="-1474" as="targetPoint" />
          </mxGeometry>
        </mxCell>
        <mxCell id="7YrM8T80tlzXBzcbhjP2-347" value="AdjacencyListSource" style="swimlane;fontStyle=0;childLayout=stackLayout;horizontal=1;startSize=26;fillColor=none;horizontalStack=0;resizeParent=1;resizeParentMax=0;resizeLast=0;collapsible=1;marginBottom=0;whiteSpace=wrap;html=1;" parent="1" vertex="1">
          <mxGeometry x="1691" y="-1545" width="140" height="78" as="geometry" />
        </mxCell>
        <mxCell id="7YrM8T80tlzXBzcbhjP2-348" value="+ nextVertex()" style="text;strokeColor=none;fillColor=none;align=left;verticalAlign=top;spacingLeft=4;spacingRight=4;overflow=hidden;rotatable=0;points=[[0,0.5],[1,0.5]];portConstraint=eastwest;whiteSpace=wrap;html=1;" parent="7YrM8T80tlzXBzcbhjP2-347" vertex="1">
          <mxGeometry y="26" width="140" height="26" as="geometry" />
        </mxCell>
        <mxCell id="7YrM8T80tlzXBzcbhjP2-349" value="+ nextEdge()" style="text;strokeColor=none;fillColor=none;align=left;verticalAlign=top;spacingLeft=4;spacingRight=4;overflow=hidden;rotatable=0;points=[[0,0.5],[1,0.5]];portConstraint=eastwest;whiteSpace=wrap;html=1;" parent="7YrM8T80tlzXBzcbhjP2-347" vertex="1">
          <mxGeometry y="52" width="140" height="26" as="geometry" />
        </mxCell>
        <mxCell id="7YrM8T80tlzXBzcbhjP2-351" value="" style="endArrow=block;endSize=16;endFill=0;html=1;rounded=0;fontSize=12;curved=1;exitX=0;exitY=0.5;exitDx=0;exitDy=0;entryX=1;entryY=0.775;entryDx=0;entryDy=0;entryPerimeter=0;" parent="1" source="7YrM8T80tlzXBzcbhjP2-348" target="7YrM8T80tlzXBzcbhjP2-334" edge="1">
          <mxGeometry width="160" relative="1" as="geometry">
            <mxPoint x="1509" y="-1458" as="sourcePoint" />
            <mxPoint x="1669" y="-1458" as="targetPoint" />
          </mxGeometry>
        </mxCell>
        <mxCell id="7YrM8T80tlzXBzcbhjP2-352" value="SourceSolution" style="swimlane;fontStyle=0;childLayout=stackLayout;horizontal=1;startSize=26;fillColor=none;horizontalStack=0;resizeParent=1;resizeParentMax=0;resizeLast=0;collapsible=1;marginBottom=0;whiteSpace=wrap;html=1;" parent="1" vertex="1">
          <mxGeometry x="1457" y="-1437" width="140" height="52" as="geometry" />
        </mxCell>
        <mxCell id="7YrM8T80tlzXBzcbhjP2-353" value="+ create()" style="text;strokeColor=none;fillColor=none;align=left;verticalAlign=top;spacingLeft=4;spacingRight=4;overflow=hidden;rotatable=0;points=[[0,0.5],[1,0.5]];portConstraint=eastwest;whiteSpace=wrap;html=1;" parent="7YrM8T80tlzXBzcbhjP2-352" vertex="1">
          <mxGeometry y="26" width="140" height="26" as="geometry" />
        </mxCell>
        <mxCell id="7YrM8T80tlzXBzcbhjP2-356" value="" style="endArrow=open;endSize=12;dashed=1;html=1;rounded=0;fontSize=12;curved=1;exitX=0.5;exitY=0;exitDx=0;exitDy=0;" parent="1" source="7YrM8T80tlzXBzcbhjP2-352" target="7YrM8T80tlzXBzcbhjP2-338" edge="1">
          <mxGeometry width="160" relative="1" as="geometry">
            <mxPoint x="1400" y="-1458" as="sourcePoint" />
            <mxPoint x="1560" y="-1458" as="targetPoint" />
          </mxGeometry>
        </mxCell>
        <mxCell id="7YrM8T80tlzXBzcbhjP2-357" value="" style="endArrow=open;endFill=1;endSize=12;html=1;rounded=0;fontSize=12;curved=1;entryX=0;entryY=0.5;entryDx=0;entryDy=0;" parent="1" source="7YrM8T80tlzXBzcbhjP2-281" target="7YrM8T80tlzXBzcbhjP2-353" edge="1">
          <mxGeometry width="160" relative="1" as="geometry">
            <mxPoint x="1026" y="-1448" as="sourcePoint" />
            <mxPoint x="1443" y="-1456" as="targetPoint" />
            <Array as="points">
              <mxPoint x="1174" y="-1473" />
            </Array>
          </mxGeometry>
        </mxCell>
        <mxCell id="7YrM8T80tlzXBzcbhjP2-358" value="ManagerSolution" style="swimlane;fontStyle=0;childLayout=stackLayout;horizontal=1;startSize=26;fillColor=none;horizontalStack=0;resizeParent=1;resizeParentMax=0;resizeLast=0;collapsible=1;marginBottom=0;whiteSpace=wrap;html=1;" parent="1" vertex="1">
          <mxGeometry x="489" y="-1679" width="147" height="182" as="geometry" />
        </mxCell>
        <mxCell id="7YrM8T80tlzXBzcbhjP2-359" value="+ getDrawManager()" style="text;strokeColor=none;fillColor=none;align=left;verticalAlign=top;spacingLeft=4;spacingRight=4;overflow=hidden;rotatable=0;points=[[0,0.5],[1,0.5]];portConstraint=eastwest;whiteSpace=wrap;html=1;" parent="7YrM8T80tlzXBzcbhjP2-358" vertex="1">
          <mxGeometry y="26" width="147" height="26" as="geometry" />
        </mxCell>
        <mxCell id="7YrM8T80tlzXBzcbhjP2-360" value="+ getSceneManager()" style="text;strokeColor=none;fillColor=none;align=left;verticalAlign=top;spacingLeft=4;spacingRight=4;overflow=hidden;rotatable=0;points=[[0,0.5],[1,0.5]];portConstraint=eastwest;whiteSpace=wrap;html=1;" parent="7YrM8T80tlzXBzcbhjP2-358" vertex="1">
          <mxGeometry y="52" width="147" height="26" as="geometry" />
        </mxCell>
        <mxCell id="7YrM8T80tlzXBzcbhjP2-361" value="+ getCameraManager()" style="text;strokeColor=none;fillColor=none;align=left;verticalAlign=top;spacingLeft=4;spacingRight=4;overflow=hidden;rotatable=0;points=[[0,0.5],[1,0.5]];portConstraint=eastwest;whiteSpace=wrap;html=1;" parent="7YrM8T80tlzXBzcbhjP2-358" vertex="1">
          <mxGeometry y="78" width="147" height="26" as="geometry" />
        </mxCell>
        <mxCell id="7YrM8T80tlzXBzcbhjP2-362" value="+ getTransformManager()" style="text;strokeColor=none;fillColor=none;align=left;verticalAlign=top;spacingLeft=4;spacingRight=4;overflow=hidden;rotatable=0;points=[[0,0.5],[1,0.5]];portConstraint=eastwest;whiteSpace=wrap;html=1;" parent="7YrM8T80tlzXBzcbhjP2-358" vertex="1">
          <mxGeometry y="104" width="147" height="26" as="geometry" />
        </mxCell>
        <mxCell id="7YrM8T80tlzXBzcbhjP2-363" value="+ getLoadManager()" style="text;strokeColor=none;fillColor=none;align=left;verticalAlign=top;spacingLeft=4;spacingRight=4;overflow=hidden;rotatable=0;points=[[0,0.5],[1,0.5]];portConstraint=eastwest;whiteSpace=wrap;html=1;" parent="7YrM8T80tlzXBzcbhjP2-358" vertex="1">
          <mxGeometry y="130" width="147" height="26" as="geometry" />
        </mxCell>
        <mxCell id="7YrM8T80tlzXBzcbhjP2-364" value="+ getHistoryManager()" style="text;strokeColor=none;fillColor=none;align=left;verticalAlign=top;spacingLeft=4;spacingRight=4;overflow=hidden;rotatable=0;points=[[0,0.5],[1,0.5]];portConstraint=eastwest;whiteSpace=wrap;html=1;" parent="7YrM8T80tlzXBzcbhjP2-358" vertex="1">
          <mxGeometry y="156" width="147" height="26" as="geometry" />
        </mxCell>
        <mxCell id="7YrM8T80tlzXBzcbhjP2-365" value="" style="endArrow=open;endFill=1;endSize=12;html=1;rounded=0;fontSize=12;curved=1;entryX=0;entryY=0;entryDx=0;entryDy=0;exitX=1;exitY=0.5;exitDx=0;exitDy=0;" parent="1" source="7YrM8T80tlzXBzcbhjP2-362" target="7YrM8T80tlzXBzcbhjP2-281" edge="1">
          <mxGeometry width="160" relative="1" as="geometry">
            <mxPoint x="675" y="-1529" as="sourcePoint" />
            <mxPoint x="835" y="-1529" as="targetPoint" />
          </mxGeometry>
        </mxCell>
        <mxCell id="7YrM8T80tlzXBzcbhjP2-367" value="" style="endArrow=open;endFill=1;endSize=12;html=1;rounded=0;fontSize=12;curved=1;entryX=1;entryY=0;entryDx=0;entryDy=0;" parent="1" source="7YrM8T80tlzXBzcbhjP2-364" target="7YrM8T80tlzXBzcbhjP2-156" edge="1">
          <mxGeometry width="160" relative="1" as="geometry">
            <mxPoint x="398" y="-1418" as="sourcePoint" />
            <mxPoint x="558" y="-1418" as="targetPoint" />
          </mxGeometry>
        </mxCell>
        <mxCell id="7YrM8T80tlzXBzcbhjP2-368" value="" style="endArrow=open;endFill=1;endSize=12;html=1;rounded=0;fontSize=12;curved=1;entryX=0;entryY=0;entryDx=0;entryDy=0;" parent="1" source="7YrM8T80tlzXBzcbhjP2-364" target="7YrM8T80tlzXBzcbhjP2-131" edge="1">
          <mxGeometry width="160" relative="1" as="geometry">
            <mxPoint x="604" y="-1241" as="sourcePoint" />
            <mxPoint x="764" y="-1241" as="targetPoint" />
            <Array as="points">
              <mxPoint x="657" y="-1303" />
            </Array>
          </mxGeometry>
        </mxCell>
        <mxCell id="7YrM8T80tlzXBzcbhjP2-369" value="" style="endArrow=open;endFill=1;endSize=12;html=1;rounded=0;fontSize=12;curved=1;exitX=0;exitY=0.5;exitDx=0;exitDy=0;entryX=1;entryY=0;entryDx=0;entryDy=0;" parent="1" source="7YrM8T80tlzXBzcbhjP2-363" target="7YrM8T80tlzXBzcbhjP2-249" edge="1">
          <mxGeometry width="160" relative="1" as="geometry">
            <mxPoint x="210" y="-1312" as="sourcePoint" />
            <mxPoint x="370" y="-1312" as="targetPoint" />
            <Array as="points">
              <mxPoint x="306" y="-1473" />
            </Array>
          </mxGeometry>
        </mxCell>
        <mxCell id="7YrM8T80tlzXBzcbhjP2-370" value="" style="endArrow=open;endFill=1;endSize=12;html=1;rounded=0;fontSize=12;curved=1;entryX=1;entryY=0;entryDx=0;entryDy=0;exitX=0;exitY=0.5;exitDx=0;exitDy=0;" parent="1" source="7YrM8T80tlzXBzcbhjP2-361" target="7YrM8T80tlzXBzcbhjP2-197" edge="1">
          <mxGeometry width="160" relative="1" as="geometry">
            <mxPoint x="211" y="-1618" as="sourcePoint" />
            <mxPoint x="260" y="-1398" as="targetPoint" />
            <Array as="points">
              <mxPoint x="78" y="-1732" />
            </Array>
          </mxGeometry>
        </mxCell>
        <mxCell id="7YrM8T80tlzXBzcbhjP2-371" value="" style="endArrow=open;endFill=1;endSize=12;html=1;rounded=0;fontSize=12;curved=1;entryX=1;entryY=0;entryDx=0;entryDy=0;" parent="1" source="7YrM8T80tlzXBzcbhjP2-364" target="7YrM8T80tlzXBzcbhjP2-179" edge="1">
          <mxGeometry width="160" relative="1" as="geometry">
            <mxPoint x="951" y="-1270" as="sourcePoint" />
            <mxPoint x="852" y="-619" as="targetPoint" />
            <Array as="points">
              <mxPoint x="675" y="-1283" />
              <mxPoint x="1056" y="-1200" />
              <mxPoint x="1112" y="-840" />
            </Array>
          </mxGeometry>
        </mxCell>
      </root>
    </mxGraphModel>
  </diagram>
</mxfile>
